<svg width="28" height="36" viewBox="0 0 28 36" fill="none" xmlns="http://www.w3.org/2000/svg">
<g id="Group 1000003640">
<g id="Icon">
<path id="Vector" d="M15.7499 16.5311V24.1144H12.2499V16.5311H15.7499ZM7.58326 16.5311V24.1144H11.0832V16.5311H7.58326ZM25.3748 25.281H7.2916C6.90483 25.281 6.5339 25.4347 6.26041 25.7082C5.98692 25.9816 5.83328 26.3526 5.83328 26.7393C5.83328 27.1261 5.98692 27.497 6.26041 27.7705C6.5339 28.044 6.90483 28.1977 7.2916 28.1977H25.3748C25.7615 28.1977 26.1325 28.044 26.406 27.7705C26.6794 27.497 26.8331 27.1261 26.8331 26.7393C26.8331 26.3526 26.6794 25.9816 26.406 25.7082C26.1325 25.4347 25.7615 25.281 25.3748 25.281ZM17.4998 29.3643H18.6665V34.0309C18.6651 34.4946 18.4803 34.939 18.1524 35.2669C17.8245 35.5948 17.3802 35.7796 16.9165 35.7809H1.74998C1.28628 35.7796 0.841946 35.5948 0.514053 35.2669C0.18616 34.939 0.00135273 34.4946 0 34.0309V2.53123C0.00135273 2.06753 0.18616 1.6232 0.514053 1.2953C0.841946 0.96741 1.28628 0.782603 1.74998 0.78125H16.9165C17.3802 0.782603 17.8245 0.96741 18.1524 1.2953C18.4803 1.6232 18.6651 2.06753 18.6665 2.53123V7.39784L17.4998 6.66099V5.44787H1.16666V29.9476H17.4998V29.3643ZM11.6666 32.8643C11.6666 32.7096 11.6051 32.5612 11.4957 32.4518C11.3863 32.3424 11.2379 32.281 11.0832 32.281H7.58326C7.42855 32.281 7.28018 32.3424 7.17079 32.4518C7.06139 32.5612 6.99993 32.7096 6.99993 32.8643C6.99993 33.019 7.06139 33.1674 7.17079 33.2768C7.28018 33.3862 7.42855 33.4476 7.58326 33.4476H11.0832C11.2379 33.4476 11.3863 33.3862 11.4957 33.2768C11.6051 33.1674 11.6666 33.019 11.6666 32.8643ZM16.9165 16.5311V24.1144H20.4165V16.5311H16.9165ZM21.5831 16.5311V24.1144H25.0831V16.5311H21.5831ZM27.977 14.9432C27.9418 15.0646 27.8681 15.1714 27.767 15.2474C27.6659 15.3233 27.5429 15.3644 27.4164 15.3644H5.24995C5.12349 15.3645 5.00045 15.3234 4.89936 15.2475C4.79826 15.1715 4.72459 15.0647 4.68943 14.9433C4.65428 14.8218 4.65954 14.6922 4.70444 14.574C4.74933 14.4557 4.83142 14.3553 4.93835 14.2878L15.3984 7.68121C15.6784 7.50561 16.0023 7.41248 16.3329 7.41248C16.6635 7.41248 16.9873 7.50561 17.2674 7.68121L27.728 14.2878C27.8348 14.3554 27.9168 14.4559 27.9617 14.574C28.0066 14.6922 28.0119 14.8217 27.977 14.9432Z" fill="white"/>
</g>
</g>
</svg>
