<svg width="45" height="44" viewBox="0 0 45 44" fill="none" xmlns="http://www.w3.org/2000/svg">
<g id="Group 81358">
<g id="Ellipse 941" opacity="0.1">
<mask id="path-1-inside-1_2305_41019" fill="white">
<path d="M30.2505 35.5412C22.6346 39.9382 12.8962 37.3288 8.49911 29.7129C4.10206 22.097 6.71146 12.3586 14.3274 7.96156C21.9433 3.56451 31.6817 6.17391 36.0787 13.7898C40.4758 21.4057 37.8664 31.1441 30.2505 35.5412ZM17.4663 13.3984C12.8531 16.0619 11.2725 21.9607 13.936 26.574C16.5994 31.1872 22.4983 32.7678 27.1115 30.1043C31.7247 27.4409 33.3053 21.542 30.6419 16.9288C27.9784 12.3156 22.0796 10.735 17.4663 13.3984Z"/>
</mask>
<path d="M30.2505 35.5412C22.6346 39.9382 12.8962 37.3288 8.49911 29.7129C4.10206 22.097 6.71146 12.3586 14.3274 7.96156C21.9433 3.56451 31.6817 6.17391 36.0787 13.7898C40.4758 21.4057 37.8664 31.1441 30.2505 35.5412ZM17.4663 13.3984C12.8531 16.0619 11.2725 21.9607 13.936 26.574C16.5994 31.1872 22.4983 32.7678 27.1115 30.1043C31.7247 27.4409 33.3053 21.542 30.6419 16.9288C27.9784 12.3156 22.0796 10.735 17.4663 13.3984Z" stroke="#6366F1" stroke-width="16" mask="url(#path-1-inside-1_2305_41019)"/>
</g>
<g id="Ellipse 940">
<mask id="path-2-inside-2_2305_41019" fill="white">
<path d="M6.90838 17.6302C7.82661 14.2033 9.86298 11.1812 12.6944 9.04351C15.5258 6.90578 18.99 5.77486 22.5373 5.8302C26.0846 5.88554 29.5119 7.12396 32.2752 9.34896C35.0385 11.574 36.9796 14.6581 37.7905 18.1119L31.178 19.6644C30.713 17.6839 29.5999 15.9154 28.0153 14.6395C26.4308 13.3636 24.4655 12.6535 22.4313 12.6217C20.3972 12.59 18.4107 13.2385 16.7871 14.4643C15.1635 15.6902 13.9958 17.4231 13.4693 19.3882L6.90838 17.6302Z"/>
</mask>
<path d="M6.90838 17.6302C7.82661 14.2033 9.86298 11.1812 12.6944 9.04351C15.5258 6.90578 18.99 5.77486 22.5373 5.8302C26.0846 5.88554 29.5119 7.12396 32.2752 9.34896C35.0385 11.574 36.9796 14.6581 37.7905 18.1119L31.178 19.6644C30.713 17.6839 29.5999 15.9154 28.0153 14.6395C26.4308 13.3636 24.4655 12.6535 22.4313 12.6217C20.3972 12.59 18.4107 13.2385 16.7871 14.4643C15.1635 15.6902 13.9958 17.4231 13.4693 19.3882L6.90838 17.6302Z" stroke="#6366F1" stroke-width="16" mask="url(#path-2-inside-2_2305_41019)"/>
</g>
</g>
</svg>
