<svg width="16" height="19" viewBox="0 0 16 19" fill="none" xmlns="http://www.w3.org/2000/svg">
<g id="Group">
<path id="Vector" d="M14.208 12.9292C13.1709 12.0422 12.1184 11.5049 11.094 12.3906L10.4824 12.9259C10.0348 13.3144 9.20274 15.13 5.98562 11.4292C2.76917 7.73304 4.68323 7.15755 5.13143 6.77233L5.74645 6.23636C6.76545 5.34867 6.38089 4.23119 5.64595 3.08087L5.20244 2.38412C4.46415 1.23649 3.66021 0.48279 2.63853 1.36914L2.08648 1.85151C1.63494 2.18045 0.372741 3.2497 0.0665717 5.28101C-0.301903 7.7183 0.860468 10.5093 3.52354 13.5717C6.18326 16.6354 8.78737 18.1743 11.2541 18.1475C13.3042 18.1254 14.5423 17.0253 14.9295 16.6253L15.4836 16.1423C16.5026 15.2566 15.8695 14.3549 14.8317 13.4658L14.208 12.9292Z" fill="#12AFFF"/>
</g>
</svg>
