<svg width="32" height="37" viewBox="0 0 32 37" fill="none" xmlns="http://www.w3.org/2000/svg">
<g id="Group">
<path id="Vector" d="M2.21373 26.3214C2.14662 26.6545 2.1126 26.9877 2.1126 27.3178C2.1126 29.8998 3.97451 32.1251 6.42654 32.581C6.88244 35.033 9.03736 36.8949 11.6193 36.8949C12.8139 36.8949 13.9025 36.4765 14.7882 35.8055V29.3236C10.0479 28.7904 6.33781 24.8043 6.33781 19.9237V17.8111C6.33781 12.9305 10.0479 8.94442 14.7882 8.41113V1.92931C13.9025 1.25828 12.8139 0.839844 11.6193 0.839844C9.03736 0.839844 6.88244 2.77217 6.42654 5.2242C3.97451 5.6801 2.1126 7.83502 2.1126 10.417C2.1126 10.7471 2.14662 11.0803 2.21373 11.4134C0.829337 12.3944 0 13.9686 0 15.6985C0 16.8466 0.383719 17.9565 1.07588 18.8674C0.383719 19.7783 0 20.8882 0 22.0363C0 23.7662 0.829337 25.3403 2.21373 26.3214Z" fill="white"/>
<path id="Vector_2" d="M15.8433 10.418C11.7666 10.418 8.44922 13.7354 8.44922 17.8121V19.9247C8.44922 24.0014 11.7666 27.3188 15.8433 27.3188C19.92 27.3188 23.2374 24.0014 23.2374 19.9247V17.8121C23.2374 13.7354 19.92 10.418 15.8433 10.418ZM14.787 25.206V23.0934H16.8996V25.206H14.787ZM14.787 20.9562V19.8751C14.787 18.5681 15.4152 17.3262 16.4684 16.5504C16.7418 16.3494 16.8996 16.0388 16.8996 15.6995C16.8996 15.1167 16.4261 14.6432 15.8433 14.6432C15.2605 14.6432 14.787 15.1167 14.787 15.6995V16.7558H12.6744V15.6995C12.6744 13.9521 14.0959 12.5306 15.8433 12.5306C17.5907 12.5306 19.0122 13.9521 19.0122 15.6995C19.0122 16.7021 18.5295 17.6563 17.7218 18.2515C17.207 18.6311 16.8996 19.2377 16.8996 19.8752V20.9563L14.787 20.9562Z" fill="white"/>
<path id="Vector_3" d="M25.2601 5.2242C24.8042 2.77217 22.6493 0.839844 20.0673 0.839844C18.8728 0.839844 17.7842 1.25828 16.8984 1.92938V8.41113C21.6388 8.94442 25.3488 12.9305 25.3488 17.8111V19.9237C25.3488 24.8043 21.6388 28.7904 16.8984 29.3236V35.8054C17.7842 36.4765 18.8728 36.8949 20.0673 36.8949C22.6493 36.8949 24.8042 35.033 25.2601 32.581C27.7121 32.1251 29.5741 29.8998 29.5741 27.3178C29.5741 26.9877 29.54 26.6545 29.4729 26.3214C30.8573 25.3403 31.6867 23.7662 31.6867 22.0363C31.6867 20.8882 31.3029 19.7783 30.6108 18.8674C31.3029 17.9565 31.6867 16.8466 31.6867 15.6985C31.6867 13.9686 30.8573 12.3944 29.4729 11.4134C29.54 11.0803 29.5741 10.747 29.5741 10.417C29.5741 7.83502 27.7121 5.6801 25.2601 5.2242Z" fill="white"/>
</g>
</svg>
