<svg width="148" height="44" viewBox="0 0 148 44" fill="none" xmlns="http://www.w3.org/2000/svg">
<g id="Group 81457">
<path id="path11" d="M142.525 43.8545H5.48182C2.4668 43.8545 0 41.3877 0 38.3727V5.48182C0 2.4668 2.4668 0 5.48182 0H142.525C145.54 0 148.007 2.4668 148.007 5.48182V38.3727C148.007 41.3877 145.54 43.8545 142.525 43.8545Z" fill="#100F0D"/>
<path id="path13" d="M142.525 0H5.48182C2.4668 0 0 2.4668 0 5.48182V38.3727C0 41.3877 2.4668 43.8545 5.48182 43.8545H142.525C145.54 43.8545 148.007 41.3877 148.007 38.3727V5.48182C148.007 2.4668 145.54 0 142.525 0ZM142.525 0.876647C145.064 0.876647 147.13 2.94266 147.13 5.48182V38.3727C147.13 40.9119 145.064 42.9779 142.525 42.9779H5.48182C2.94266 42.9779 0.877551 40.9119 0.877551 38.3727V5.48182C0.877551 2.94266 2.94266 0.876647 5.48182 0.876647H142.525Z" fill="#A2A2A1"/>
<path id="path35" d="M117.24 32.8927H119.286V19.1859H117.24V32.8927ZM135.667 24.1237L133.322 30.0659H133.251L130.818 24.1237H128.614L132.265 32.4289L130.183 37.0489H132.316L137.942 24.1241L135.667 24.1237ZM124.064 31.3357C123.395 31.3357 122.46 31.0003 122.46 30.1717C122.46 29.1138 123.625 28.7083 124.629 28.7083C125.528 28.7083 125.952 28.9019 126.498 29.1665C126.339 30.4363 125.246 31.3357 124.064 31.3357ZM124.312 23.8239C122.831 23.8239 121.297 24.4766 120.662 25.9225L122.478 26.6805C122.866 25.9225 123.588 25.6758 124.347 25.6758C125.405 25.6758 126.481 26.3101 126.498 27.439V27.5799C126.127 27.3683 125.334 27.051 124.365 27.051C122.406 27.051 120.414 28.1263 120.414 30.1366C120.414 31.9704 122.019 33.152 123.817 33.152C125.192 33.152 125.952 32.5348 126.427 31.8116H126.498V32.8702H128.474V27.6149C128.474 25.1815 126.656 23.8239 124.312 23.8239ZM111.668 25.7922H108.759V21.0942H111.668C113.198 21.0942 114.066 22.3602 114.066 23.4432C114.066 24.5053 113.198 25.7922 111.668 25.7922ZM111.616 19.1862H106.714V32.893H108.759V27.7003H111.616C113.883 27.7003 116.112 26.0592 116.112 23.4437C116.112 20.8287 113.883 19.1862 111.616 19.1862ZM84.8854 31.338C83.4721 31.338 82.2892 30.1543 82.2892 28.5299C82.2892 26.8866 83.4721 25.6862 84.8854 25.6862C86.2808 25.6862 87.3758 26.8867 87.3758 28.5299C87.3758 30.1543 86.2808 31.338 84.8854 31.338ZM87.2345 24.891H87.1638C86.7047 24.3436 85.8211 23.849 84.709 23.849C82.377 23.849 80.24 25.8982 80.24 28.5299C80.24 31.1436 82.377 33.1749 84.709 33.1749C85.8211 33.1749 86.7047 32.6802 87.1638 32.1153H87.2345V32.786C87.2345 34.5706 86.2808 35.5239 84.7441 35.5239C83.4905 35.5239 82.7133 34.6232 82.395 33.8638L80.6114 34.6056C81.1232 35.8415 82.4829 37.3611 84.7442 37.3611C87.1468 37.3611 89.178 35.9478 89.178 32.5032V24.1315H87.2346L87.2345 24.891ZM90.5913 32.8922H92.6393V19.1854H90.5913V32.8922ZM95.6599 28.3706C95.6072 26.5689 97.056 25.6506 98.0976 25.6506C98.9104 25.6506 99.5986 26.0571 99.8291 26.6395L95.6599 28.3706ZM102.018 26.816C101.63 25.7745 100.447 23.849 98.0268 23.849C95.6243 23.849 93.6286 25.7389 93.6286 28.512C93.6286 31.1261 95.6072 33.1749 98.256 33.1749C100.393 33.1749 101.63 31.8683 102.142 31.1085L100.553 30.0486C100.023 30.8259 99.2988 31.3381 98.256 31.3381C97.2145 31.3381 96.4723 30.8611 95.9961 29.9249L102.23 27.3463L102.018 26.816ZM52.3444 25.2798V27.258H57.078C56.9366 28.3707 56.5657 29.183 56.0004 29.7484C55.3114 30.437 54.2339 31.1968 52.3443 31.1968C49.4299 31.1968 47.1516 28.8477 47.1516 25.9333C47.1516 23.019 49.4299 20.6696 52.3443 20.6696C53.9164 20.6696 55.0642 21.2879 55.9121 22.0828L57.3079 20.6871C56.1241 19.5569 54.5524 18.6914 52.3443 18.6914C48.352 18.6914 44.9961 21.9414 44.9961 25.9333C44.9961 29.9248 48.352 33.1749 52.3443 33.1749C54.4989 33.1749 56.1242 32.4683 57.3957 31.1437C58.7028 29.8366 59.1092 27.9998 59.1092 26.5159C59.1092 26.0571 59.0736 25.6332 59.003 25.2798H52.3444ZM64.4913 31.338C63.078 31.338 61.8592 30.1723 61.8592 28.512C61.8592 26.834 63.078 25.6862 64.4913 25.6862C65.9041 25.6862 67.1229 26.834 67.1229 28.512C67.1229 30.1723 65.9041 31.338 64.4913 31.338ZM64.4913 23.849C61.9118 23.849 59.8103 25.8095 59.8103 28.512C59.8103 31.1968 61.9118 33.1749 64.4913 33.1749C67.0699 33.1749 69.1718 31.1968 69.1718 28.512C69.1718 25.8095 67.0699 23.849 64.4913 23.849ZM74.7018 31.338C73.2894 31.338 72.0702 30.1723 72.0702 28.512C72.0702 26.834 73.2895 25.6862 74.7018 25.6862C76.1151 25.6862 77.3335 26.834 77.3335 28.512C77.3335 30.1723 76.1151 31.338 74.7018 31.338ZM74.7018 23.849C72.1232 23.849 70.0217 25.8095 70.0217 28.512C70.0217 31.1968 72.1232 33.1749 74.7018 33.1749C77.2813 33.1749 79.3828 31.1968 79.3828 28.512C79.3828 25.8095 77.2813 23.849 74.7018 23.849Z" fill="white"/>
<path id="path37" d="M22.7107 21.297L11.0391 33.6857C11.0395 33.6882 11.0404 33.6904 11.0408 33.693C11.3987 35.0383 12.6275 36.0288 14.0857 36.0288C14.6687 36.0288 15.216 35.8712 15.6853 35.5945L15.7226 35.5727L28.8612 27.9912L22.7107 21.297Z" fill="#EB3131"/>
<path id="path39" d="M34.5195 19.1866L34.5083 19.179L28.8359 15.8906L22.4453 21.5773L28.8581 27.9893L34.5005 24.7336C35.4898 24.1996 36.1613 23.1567 36.1613 21.9541C36.1613 20.7602 35.4989 19.7224 34.5195 19.1866Z" fill="#F6B60B"/>
<path id="path41" d="M11.0367 10.1719C10.9666 10.4306 10.9297 10.7016 10.9297 10.9831V32.875C10.9297 33.1559 10.9661 33.4278 11.0372 33.6857L23.1117 21.6136L11.0367 10.1719Z" fill="#5778C5"/>
<path id="path43" d="M22.794 21.9315L28.8356 15.8916L15.7118 8.28264C15.2348 7.99693 14.678 7.83203 14.0823 7.83203C12.624 7.83203 11.3936 8.82437 11.0356 10.1712C11.0352 10.1725 11.0352 10.1734 11.0352 10.1746L22.794 21.9315Z" fill="#3BAD49"/>
<path id="path33" d="M51.9621 10.7248H48.7638V11.5163H51.1605C51.0954 12.1622 50.8384 12.6692 50.405 13.0375C49.9716 13.4059 49.4182 13.5909 48.7638 13.5909C48.046 13.5909 47.4379 13.3408 46.9395 12.844C46.4512 12.337 46.2029 11.7099 46.2029 10.9545C46.2029 10.1991 46.4512 9.57206 46.9395 9.06503C47.4379 8.56827 48.0461 8.31984 48.7638 8.31984C49.1322 8.31984 49.4834 8.38321 49.8054 8.522C50.1275 8.66069 50.3861 8.85431 50.5883 9.10275L51.1964 8.4946C50.9206 8.18104 50.5712 7.94126 50.1376 7.76651C49.7042 7.59174 49.252 7.50787 48.7637 7.50787C47.8062 7.50787 46.9943 7.84018 46.3312 8.50317C45.6683 9.16779 45.3359 9.98667 45.3359 10.9545C45.3359 11.9224 45.6682 12.743 46.3312 13.406C46.9942 14.0689 47.8062 14.4013 48.7637 14.4013C49.7693 14.4013 50.5711 14.0792 51.1878 13.4248C51.7308 12.8801 52.0083 12.1435 52.0083 11.2218C52.0083 11.0659 51.9895 10.8996 51.9621 10.7248ZM53.2012 7.65505V14.2539H57.0538V13.4436H54.0491V11.3502H56.7592V10.5588H54.0491V8.46711H57.0538V7.65503L53.2012 7.65505ZM62.4561 8.46713V7.65505H57.9215V8.46713H59.7649V14.2539H60.6128V8.46713H62.4561ZM66.5614 7.65505H65.7134V14.2539H66.5614V7.65505ZM72.1584 8.46713V7.65505H67.6239V8.46713H69.4671V14.2539H70.3151V8.46713H72.1584ZM80.7152 8.51339C80.0607 7.84013 79.2591 7.50781 78.3014 7.50781C77.3421 7.50781 76.5405 7.84012 75.886 8.50312C75.2316 9.15754 74.9096 9.97806 74.9096 10.9545C74.9096 11.9308 75.2316 12.7515 75.886 13.406C76.5404 14.0688 77.3421 14.4013 78.3014 14.4013C79.2504 14.4013 80.0607 14.0688 80.7152 13.406C81.3696 12.7515 81.6916 11.9309 81.6916 10.9545C81.6916 9.98662 81.3696 9.16769 80.7152 8.51339ZM76.4942 9.06497C76.9824 8.56821 77.582 8.31978 78.3014 8.31978C79.0192 8.31978 79.6188 8.56822 80.0984 9.06497C80.5867 9.55318 80.8264 10.1904 80.8264 10.9544C80.8264 11.7202 80.5867 12.3557 80.0984 12.844C79.6188 13.3407 79.0192 13.5908 78.3014 13.5908C77.582 13.5908 76.9824 13.3407 76.4942 12.844C76.0162 12.3455 75.7764 11.7202 75.7764 10.9544C75.7764 10.1904 76.0162 9.56345 76.4942 9.06497ZM83.7062 10.1442L83.6702 8.87132H83.7062L87.0604 14.2538H87.946V7.65499H87.0981V11.5162L87.134 12.7891H87.0981L83.8912 7.65499H82.8582V14.2538H83.7062V10.1442Z" fill="white" stroke="white" stroke-width="0.26666" stroke-miterlimit="10"/>
</g>
</svg>
