<svg width="45" height="44" viewBox="0 0 45 44" fill="none" xmlns="http://www.w3.org/2000/svg">
<g id="Group 81358">
<g id="Ellipse 941" opacity="0.1">
<mask id="path-1-inside-1_2305_41012" fill="white">
<path d="M30.2505 35.5412C22.6346 39.9382 12.8962 37.3288 8.49911 29.7129C4.10206 22.097 6.71146 12.3586 14.3274 7.96156C21.9433 3.56451 31.6817 6.17391 36.0787 13.7898C40.4758 21.4057 37.8664 31.1441 30.2505 35.5412ZM17.4663 13.3984C12.8531 16.0619 11.2725 21.9607 13.936 26.574C16.5994 31.1872 22.4983 32.7678 27.1115 30.1043C31.7247 27.4409 33.3053 21.542 30.6419 16.9288C27.9784 12.3156 22.0796 10.735 17.4663 13.3984Z"/>
</mask>
<path d="M30.2505 35.5412C22.6346 39.9382 12.8962 37.3288 8.49911 29.7129C4.10206 22.097 6.71146 12.3586 14.3274 7.96156C21.9433 3.56451 31.6817 6.17391 36.0787 13.7898C40.4758 21.4057 37.8664 31.1441 30.2505 35.5412ZM17.4663 13.3984C12.8531 16.0619 11.2725 21.9607 13.936 26.574C16.5994 31.1872 22.4983 32.7678 27.1115 30.1043C31.7247 27.4409 33.3053 21.542 30.6419 16.9288C27.9784 12.3156 22.0796 10.735 17.4663 13.3984Z" stroke="#10B981" stroke-width="16" mask="url(#path-1-inside-1_2305_41012)"/>
</g>
<g id="Ellipse 940">
<mask id="path-2-inside-2_2305_41012" fill="white">
<path d="M22.845 37.6648C19.1355 37.7944 15.4971 36.624 12.5589 34.3558C9.62068 32.0877 7.56717 28.8643 6.7533 25.2427C5.93942 21.6212 6.41632 17.8292 8.10158 14.5219C9.78683 11.2147 12.5745 8.60018 15.9829 7.13018L18.6729 13.3672C16.7184 14.2101 15.1199 15.7094 14.1535 17.6058C13.1871 19.5023 12.9137 21.6767 13.3804 23.7534C13.8471 25.8301 15.0246 27.6785 16.7095 28.9791C18.3943 30.2797 20.4806 30.9509 22.6078 30.8766L22.845 37.6648Z"/>
</mask>
<path d="M22.845 37.6648C19.1355 37.7944 15.4971 36.624 12.5589 34.3558C9.62068 32.0877 7.56717 28.8643 6.7533 25.2427C5.93942 21.6212 6.41632 17.8292 8.10158 14.5219C9.78683 11.2147 12.5745 8.60018 15.9829 7.13018L18.6729 13.3672C16.7184 14.2101 15.1199 15.7094 14.1535 17.6058C13.1871 19.5023 12.9137 21.6767 13.3804 23.7534C13.8471 25.8301 15.0246 27.6785 16.7095 28.9791C18.3943 30.2797 20.4806 30.9509 22.6078 30.8766L22.845 37.6648Z" stroke="#10B981" stroke-width="16" mask="url(#path-2-inside-2_2305_41012)"/>
</g>
</g>
</svg>
