<svg width="34" height="35" viewBox="0 0 34 35" fill="none" xmlns="http://www.w3.org/2000/svg">
<g id="Group 1000003642">
<g id="Group">
<g id="Group_2">
<path id="Vector" d="M33.9464 1.51066C33.8278 1.0929 33.4599 0.78125 33.004 0.78125H29.0196C28.469 0.78125 28.0235 1.22677 28.0235 1.77735C28.0235 2.32792 28.469 2.77344 29.0196 2.77344H31.3492L26.5923 8.14427C20.179 15.399 10.741 19.2336 1.08158 18.3942C0.551462 18.3387 0.0514208 18.7522 0.0038073 19.3008C-0.0438726 19.8484 0.361805 20.3309 0.910389 20.3785C1.84227 20.4593 2.62859 20.4991 3.55762 20.4991C12.8659 20.4991 21.8735 16.4884 28.0846 9.46324L32.0079 5.03525V5.76174C32.0079 6.31231 32.4534 6.75783 33.004 6.75783C33.5546 6.75783 34.0001 6.31231 34.0001 5.76174V2.7603L33.9464 1.51066Z" fill="white"/>
</g>
</g>
<g id="Group_3">
<g id="Group_4">
<path id="Vector_2" d="M33.004 32.7925H31.9415V10.3976C31.9415 9.97928 31.6799 9.60575 31.2869 9.46178C30.8949 9.32073 30.4542 9.43548 30.1838 9.75556L29.5719 10.4822C28.5603 11.6825 27.4582 12.8236 26.2947 13.8712C26.0846 14.06 25.9649 14.3294 25.9649 14.6115V32.7925H23.9727V17.7195C23.9727 17.3518 23.7694 17.0133 23.4455 16.8401C23.1216 16.6689 22.7257 16.6865 22.4212 16.8927C21.1849 17.7234 19.8814 18.4822 18.5467 19.1494C18.2092 19.3177 17.9962 19.663 17.9962 20.0405V32.7925H16.004V21.7389C16.004 21.4149 15.8464 21.1115 15.5818 20.9247C15.3182 20.7389 14.9777 20.6941 14.6732 20.8012C13.4097 21.2515 12.1062 21.6338 10.7988 21.9354C10.3474 22.0404 10.0274 22.4422 10.0274 22.9062V32.7925H8.03519V23.5929C8.03519 23.3089 7.9136 23.0385 7.70249 22.8498C7.48946 22.6611 7.20052 22.5648 6.92626 22.6037C5.64807 22.7496 4.34558 22.8245 3.05377 22.8264C2.50419 22.8274 2.05867 23.2729 2.05867 23.8225V32.7925H0.996098C0.445521 32.7925 0 33.238 0 33.7886C0 34.3392 0.445521 34.7847 0.996098 34.7847H33.004C33.5546 34.7847 34.0001 34.3392 34.0001 33.7886C34.0001 33.238 33.5546 32.7925 33.004 32.7925Z" fill="white"/>
</g>
</g>
</g>
</svg>
