<svg width="37" height="38" viewBox="0 0 37 38" fill="none" xmlns="http://www.w3.org/2000/svg">
<path id="Vector" fill-rule="evenodd" clip-rule="evenodd" d="M19.2074 15.7355L17.3975 18.8246C17.3638 18.8822 17.4145 18.9519 17.4807 18.9387L20.1436 18.4091C20.1825 18.4014 20.2206 18.423 20.2332 18.46L21.0991 20.9975C21.1207 21.0605 21.2073 21.0689 21.241 21.0114L23.1785 17.7045C23.2049 17.6595 23.1799 17.6027 23.1285 17.5909C21.7049 17.2642 20.4085 16.611 19.3255 15.715C19.2879 15.684 19.2319 15.6937 19.2074 15.7355ZM24.3328 27.8225C24.5865 26.8325 23.9979 25.8429 23.0225 25.5854L17.9073 24.2347C17.8227 24.2124 17.7763 24.1832 17.7063 24.1347C16.0846 23.0059 14.8802 22.5962 13.777 22.6242C12.6606 22.6526 11.5771 23.1333 10.249 23.7733C9.06993 24.3414 7.88754 24.9003 6.7014 25.4535C6.66362 25.4711 6.64665 25.5148 6.66268 25.5528L9.77064 32.9071C9.788 32.9483 9.83634 32.9662 9.87702 32.9468L11.0214 32.3985C11.9155 31.9701 12.8324 31.8943 13.787 32.1674L19.4284 33.7816C20.9178 34.2078 22.8608 33.4627 24.4021 32.8716C28.041 31.4764 31.6903 30.103 35.334 28.7193C36.1858 28.3959 36.8001 27.5607 36.9602 26.7164C37.0741 26.1161 36.9559 25.5008 36.4415 25.114C35.7973 24.6296 34.5728 24.4855 32.5641 25.0662L25.5396 27.097C25.5041 27.1073 25.4812 27.1394 25.4835 27.1758C25.5029 27.4797 25.4737 27.7914 25.3895 28.101C24.9705 29.642 23.3442 30.5683 21.7805 30.1559L14.9819 28.3607C14.6901 28.2839 14.5168 27.9885 14.5948 27.701C14.6727 27.4134 14.9725 27.2426 15.2643 27.3195L22.0607 29.114C23.0578 29.3625 24.0532 28.7969 24.3328 27.8225ZM8.90794 36.6429L6.1957 37.7528C5.60724 37.9936 4.92813 37.7175 4.68314 37.1378C3.15228 33.5152 1.62134 29.8926 0.0904761 26.2699C-0.157093 25.6841 0.120435 25.0212 0.715149 24.7778L3.42738 23.668C4.01584 23.4271 4.69495 23.7033 4.93994 24.2829C6.47088 27.9055 8.00182 31.5282 9.53269 35.1508C9.78018 35.7368 9.50273 36.3996 8.90794 36.6429ZM25.2146 0.839844C29.6722 0.839844 33.2857 4.40087 33.2857 8.79362C33.2857 13.1864 29.6722 16.7475 25.2146 16.7475C20.757 16.7475 17.1434 13.1865 17.1434 8.79362C17.1434 4.40094 20.757 0.839844 25.2146 0.839844ZM26.958 7.22158L24.1644 9.45276C24.1285 9.48144 24.076 9.47365 24.0502 9.43588L23.2758 8.29936C23.1081 8.05262 22.7691 7.98656 22.5187 8.15183C22.2683 8.31709 22.2013 8.65117 22.369 8.89799L23.5194 10.5865C23.7 10.8534 24.0678 10.9153 24.322 10.7117L27.6466 8.0564C27.8805 7.86901 27.9159 7.53023 27.7258 7.29975C27.5356 7.06927 27.1919 7.03419 26.958 7.22158ZM25.2146 3.75206C22.3892 3.75206 20.0986 6.00937 20.0986 8.79362C20.0986 11.5779 22.3892 13.8352 25.2146 13.8352C28.0399 13.8352 30.3305 11.5779 30.3305 8.79362C30.3305 6.00937 28.0398 3.75206 25.2146 3.75206ZM25.2146 4.8313C22.9938 4.8313 21.1937 6.60522 21.1937 8.7937C21.1937 10.9822 22.9938 12.7561 25.2146 12.7561C27.4354 12.7561 29.2355 10.9822 29.2355 8.7937C29.2355 6.60515 27.4353 4.8313 25.2146 4.8313ZM31.2218 15.7355C31.1973 15.6937 31.1412 15.684 31.1038 15.7149C30.0207 16.6108 28.7243 17.2641 27.3007 17.5908C27.2493 17.6026 27.2244 17.6595 27.2508 17.7044L29.1881 21.0113C29.2218 21.0689 29.3085 21.0604 29.33 20.9974L30.196 18.46C30.2087 18.423 30.2468 18.4012 30.2857 18.409L32.9485 18.9387C33.0146 18.9518 33.0655 18.8822 33.0318 18.8246L31.2218 15.7355Z" fill="white"/>
</svg>
