<svg width="73" height="34" viewBox="0 0 73 34" fill="none" xmlns="http://www.w3.org/2000/svg">
<path fill-rule="evenodd" clip-rule="evenodd" d="M5.81481 5.54837C5.94499 5.37922 5.84094 5.32742 6.06188 5.2362C6.28283 5.288 6.17877 5.44432 6.51707 5.41956C6.595 5.35447 6.62112 5.28938 6.68622 5.25042C6.77789 5.19862 6.88103 5.22429 6.96125 5.17249C7.05293 5.09456 7.00021 5.00334 7.10427 4.95154C7.22116 4.88645 7.26012 4.97767 7.26012 5.08173C7.27296 5.28984 7.12994 5.41956 7.05201 5.54975C6.93512 5.74456 7.00021 5.88758 6.97409 6.13466C6.92398 6.53618 6.95944 6.94376 7.07814 7.3306C7.17091 7.46289 7.2535 7.60203 7.32522 7.74682C7.45904 8.09283 7.56346 8.4495 7.63738 8.81305C7.72734 9.42845 7.7739 10.0494 7.77673 10.6714C7.8157 11.1266 7.88079 11.4254 7.94588 11.8416C7.97201 12.0626 8.03756 12.1538 8.07606 12.3876C8.12103 12.5763 8.15577 12.7672 8.18012 12.9597C7.95917 12.9079 7.95917 12.7516 7.81615 12.7126C7.75106 12.8817 8.10219 13.2196 8.23237 13.3498C8.60481 13.7361 8.93193 14.1636 9.20738 14.6241C9.35001 14.851 9.48024 15.0854 9.59747 15.3263C9.84339 15.8499 10.0562 16.3883 10.2346 16.9385L10.5596 18.3036C10.5858 18.4595 10.5858 18.6158 10.6247 18.7716C10.6702 18.9243 10.7009 19.0811 10.7164 19.2397C10.7253 19.41 10.747 19.5795 10.7815 19.7466C10.9723 20.7284 10.9188 21.742 10.6256 22.6982C10.5986 22.8516 10.5638 23.0035 10.5216 23.1534L10.1443 24.4667C10.1315 24.5057 9.39027 26.8073 9.23442 27.1712L8.98735 27.7671C8.89567 28.0422 8.77924 28.3264 8.67518 28.5863C8.54029 28.8282 8.43546 29.0858 8.36302 29.3532C8.36016 30.028 8.27723 30.7001 8.11594 31.3554C8.08238 31.4907 8.01626 31.6157 7.92335 31.7196C7.83043 31.8234 7.71353 31.903 7.58283 31.9513C7.51663 31.9792 7.44509 31.9919 7.37335 31.9887C7.30162 31.9855 7.23149 31.9665 7.16803 31.9329C7.10456 31.8993 7.04935 31.852 7.00638 31.7945C6.96341 31.737 6.93375 31.6706 6.91954 31.6002C6.71143 30.9892 7.12765 30.2608 7.07539 29.598C7.00472 29.2679 7.03671 28.9242 7.16707 28.6129C7.27113 28.457 7.35043 28.457 7.47924 28.353C7.68735 28.1971 7.63509 27.2606 7.70018 26.9228C7.76527 26.5978 7.75198 26.2595 7.79186 25.8955C7.81799 25.6356 8.0261 24.0619 7.85695 23.802C7.73635 24.0641 7.6321 24.3334 7.54479 24.6083C7.09503 25.945 6.55187 27.2484 5.91932 28.5088C5.78914 28.7687 5.68509 29.003 5.54207 29.2629C4.95716 30.3419 5.32112 29.8867 5.30783 30.2901C5.30783 30.4203 5.24274 30.446 5.19094 30.5652C4.67066 31.7744 5.03508 31.6703 4.86594 32.4904C4.86066 32.5917 4.83159 32.6904 4.78111 32.7784C4.73062 32.8664 4.66012 32.9413 4.57532 32.997C4.49052 33.0527 4.39379 33.0876 4.29298 33.099C4.19216 33.1104 4.09008 33.0979 3.99499 33.0625C3.41008 32.8791 3.47472 31.8532 3.52697 31.3334C3.64199 30.8388 3.7896 30.3523 3.96886 29.8771C4.00783 29.7469 4.02066 29.7602 4.06054 29.63C4.28149 28.837 4.33558 27.9267 4.63262 27.2116C4.6691 27.1138 4.69971 27.014 4.72429 26.9127L5.43939 24.9874C5.82948 23.8951 5.56957 22.4392 5.92024 20.9696C5.97204 20.7487 5.99817 20.5667 6.03713 20.3196C6.15402 19.5656 6.2842 19.1232 5.99817 18.3563C5.92797 18.1915 5.82122 18.0448 5.686 17.9273C5.25695 17.5111 5.28308 17.9534 5.20515 17.186C5.14869 17.411 5.02102 17.6117 4.84118 17.7581C3.93576 18.7431 3.12953 19.8148 2.43416 20.9577C2.19992 21.2955 2.33011 21.2699 1.97898 21.4129C1.96945 21.702 1.9123 21.9876 1.80983 22.2582C1.78384 22.4165 1.77112 22.5767 1.77179 22.7372C1.75895 22.8541 1.71999 22.9453 1.58843 22.9453C1.40507 22.9453 1.53663 22.6854 1.40507 22.568C1.24922 22.7372 1.44403 23.0883 1.32714 23.1919C1.13233 23.3221 1.158 23.1791 1.08007 23.0617V23.3606C0.742235 23.3867 1.02827 23.2437 0.48416 23.2304C0.300803 22.8926 0.36727 22.9444 0.328307 22.5282C0.224252 22.4631 0.172453 22.5153 0.13349 22.3723C0.118834 22.3248 0.117141 22.2743 0.128586 22.2259C0.14003 22.1776 0.164197 22.1332 0.198582 22.0973C0.32497 21.9874 0.459682 21.8875 0.601509 21.7984L0.965014 21.4619C1.07235 21.3397 1.18981 21.2266 1.31614 21.1241C1.32898 20.8491 1.27718 20.8899 1.38124 20.6432C1.73236 19.8369 1.94047 18.8748 2.3952 18.134C2.96727 17.2369 3.63057 16.4439 3.66953 15.3378C3.25331 15.3378 3.12359 15.4808 2.70691 15.468C1.73191 15.4419 1.17267 13.6738 1.22446 12.8157C1.22697 12.5519 1.28908 12.2921 1.40617 12.0557C1.52325 11.8193 1.69228 11.6125 1.90059 11.4506C2.06402 11.2717 2.23774 11.1024 2.42087 10.9437C2.56389 10.9698 2.55105 11.0353 2.66794 11.0216C2.83709 11.0087 2.69407 10.9698 2.88889 10.9175C2.96682 11.1385 2.81096 11.2036 3.097 11.2687C3.81209 11.452 3.64295 11.3727 3.99407 11.2425C4.22831 11.1646 4.17743 11.3342 4.397 11.3594C4.55185 11.3587 4.70263 11.4089 4.82606 11.5024C5.07313 11.6455 5.08597 11.8274 5.52832 11.9187C5.80335 11.9837 5.68417 11.9448 5.87944 12.102C5.87944 12.4009 5.76255 12.3881 5.78777 12.5439C5.80847 12.6871 5.84777 12.8271 5.90466 12.9601C6.00871 12.791 5.96975 12.648 6.03484 12.4531L6.28191 11.4781C6.29475 11.2948 6.29475 11.0752 6.29475 10.8822C6.30774 10.3115 6.26414 9.74094 6.16457 9.17884C6.13844 8.98403 6.15173 8.78875 6.1256 8.60677C6.04754 8.33042 6.04754 8.03785 6.1256 7.76149C6.19069 7.63131 6.20353 7.68357 6.20353 7.59235C6.169 7.25706 6.08577 6.9286 5.95645 6.61734C5.87853 6.53942 5.8524 6.55225 5.73551 6.52567C5.5274 6.47387 4.72154 5.8885 5.21523 5.81057C5.43618 5.77161 5.46231 5.99393 5.67042 5.8885C5.59249 5.69368 5.38438 5.71935 5.43618 5.43331C5.56809 5.44855 5.69602 5.48819 5.81344 5.5502L5.81481 5.54837Z" fill="#12AFFF"/>
<path fill-rule="evenodd" clip-rule="evenodd" d="M10.9232 3.58594L10.7023 4.24923H10L10.5721 4.65216L10.3511 5.31545L10.9232 4.91253L11.4824 5.31545L11.2743 4.65216L11.8336 4.24923H11.1313L10.9232 3.58594Z" fill="#12AFFF"/>
<path fill-rule="evenodd" clip-rule="evenodd" d="M8.611 2.35156L8.42764 2.93647H7.80469L8.31167 3.30044L8.11685 3.88535L8.611 3.52138L9.11798 3.88535L8.92317 3.30044L9.41731 2.93647H8.80582L8.611 2.35156Z" fill="#12AFFF"/>
<path fill-rule="evenodd" clip-rule="evenodd" d="M8.85716 4.45703L8.63621 5.15929H7.89453L8.49044 5.58834L8.2585 6.2906L8.85441 5.86155L9.45032 6.2906L9.21608 5.58834L9.81199 5.15929H9.09094L8.85716 4.45703Z" fill="#12AFFF"/>
<path fill-rule="evenodd" clip-rule="evenodd" d="M6.60811 2.44141L6.4133 3.06528H5.75L6.28311 3.45537L6.08829 4.07924L6.60857 3.68915L7.14168 4.07924L6.93357 3.45537L7.46668 3.06528H6.81622L6.60811 2.44141Z" fill="#12AFFF"/>
<path fill-rule="evenodd" clip-rule="evenodd" d="M4.20337 4.63672L4.03423 5.157H3.48828L3.93017 5.482L3.76332 6.00181L4.20521 5.67681L4.6471 6.00181L4.47795 5.48154L4.91984 5.15654H4.37252L4.20337 4.63672Z" fill="#12AFFF"/>
<path fill-rule="evenodd" clip-rule="evenodd" d="M4.53892 2.62109L4.3308 3.25826H3.66797L4.21392 3.64835L4.0058 4.28552L4.53892 3.89543L5.08486 4.28552L4.87675 3.64835L5.4227 3.25826H4.74703L4.53892 2.62109Z" fill="#12AFFF"/>
<path fill-rule="evenodd" clip-rule="evenodd" d="M8.11724 0.152344L7.93388 0.737253L7.32422 0.724418L7.81837 1.08838L7.63501 1.66046L8.11724 1.29833L8.61139 1.66229L8.41657 1.09022L8.91072 0.726252L8.29968 0.739087L8.11724 0.152344Z" fill="#12AFFF"/>
<path fill-rule="evenodd" clip-rule="evenodd" d="M6.0485 0.335938L5.85368 0.920847H5.24219L5.73633 1.28481L5.55298 1.86972L6.04712 1.50576L6.54127 1.86972L6.34645 1.28481L6.85344 0.920847H6.23048L6.0485 0.335938Z" fill="#12AFFF"/>
<path fill-rule="evenodd" clip-rule="evenodd" d="M3.90158 1.05078L3.74572 1.54493H3.23828L3.64121 1.8438L3.48535 2.32466L3.90158 2.02578L4.3178 2.32466L4.14865 1.8438L4.56487 1.54493H4.05743L3.90158 1.05078Z" fill="#12AFFF"/>
<path fill-rule="evenodd" clip-rule="evenodd" d="M10.6915 0.554688L10.4706 1.24228H9.74219L10.3381 1.67133L10.1039 2.34746L10.6888 1.93124L11.2737 2.34746L11.0527 1.67133L11.6404 1.24228H10.9125L10.6915 0.554688Z" fill="#12AFFF"/>
<path fill-rule="evenodd" clip-rule="evenodd" d="M2.65548 2.6875L2.49963 3.16835H1.99219L2.40841 3.46723L2.23926 3.94808L2.65548 3.64921L3.0717 3.94808L2.91585 3.46723L3.31878 3.16835H2.81134L2.65548 2.6875Z" fill="#12AFFF"/>
<path fill-rule="evenodd" clip-rule="evenodd" d="M10.2608 2.58203L10.1306 2.98496H9.71484L10.0527 3.23203L9.92249 3.63496L10.2603 3.38789L10.6115 3.63496L10.4813 3.23203L10.8191 2.98496H10.3901L10.2608 2.58203Z" fill="#12AFFF"/>
<path d="M32.8338 13.647C32.8338 12.3599 32.8338 11.6709 32.353 11.1896C31.9967 10.8357 31.5162 10.635 31.014 10.6303C30.5136 10.6379 30.0367 10.8436 29.6879 11.2024C29.207 11.6833 29.207 12.3337 29.207 13.6319V18.8718C29.207 19.3921 29.207 21.5373 29.9611 22.8112C31.3005 25.1123 33.7575 25.2687 35.7341 25.2687C37.6974 25.2687 39.6346 24.8135 40.8177 22.9542C41.5053 21.888 41.6496 20.484 41.6496 18.7934V13.6337C41.6496 12.3466 41.6497 11.6576 41.1555 11.1763C40.9831 10.9983 40.7765 10.8571 40.5482 10.761C40.3198 10.6649 40.0744 10.616 39.8266 10.6172C39.5789 10.6184 39.3339 10.6697 39.1065 10.768C38.8791 10.8663 38.6739 11.0095 38.5032 11.1891C38.0224 11.67 38.0224 12.3204 38.0224 13.6186V19.1056C38.0224 20.4056 37.9963 22.395 35.4742 22.395C32.8219 22.395 32.8219 20.3015 32.8219 19.0276L32.8348 13.6447L32.8338 13.647Z" fill="#12AFFF"/>
<path d="M52.6625 23.1131C53.5334 24.5822 54.0019 25.3624 55.2368 25.3624C56.1729 25.3624 56.9141 24.7514 56.9141 23.9194C56.9141 23.1264 56.1211 21.605 55.4839 20.7079C54.9602 19.887 54.2292 19.2188 53.3648 18.7707C54.0995 18.6162 54.7973 18.3204 55.4193 17.8998C55.881 17.5358 56.251 17.0686 56.4994 16.5357C56.7478 16.0028 56.8677 15.419 56.8495 14.8313C56.8852 14.0717 56.6826 13.3199 56.27 12.6811C55.8574 12.0423 55.2555 11.5485 54.5483 11.2687C53.4943 10.9575 52.3956 10.8256 51.2979 10.8786H47.6701C46.1231 10.8786 45.6679 10.8786 45.1737 11.4117C44.6406 11.9838 44.6406 12.2826 44.6406 13.9209V22.2683C44.6406 23.5554 44.6406 24.2444 45.1215 24.7257C45.4779 25.0797 45.9586 25.2804 46.4609 25.285C46.7087 25.2814 46.9533 25.229 47.1809 25.1308C47.4084 25.0327 47.6144 24.8907 47.787 24.7129C48.2684 24.232 48.2683 23.5816 48.2683 22.2834V19.2149H48.7492C49.9195 19.2149 50.4265 19.3708 51.5967 21.3474L52.663 23.1158L52.6625 23.1131ZM48.2807 13.5176H50.3609C51.687 13.5176 53.1952 13.5176 53.1952 15.1036C53.1952 16.7029 51.5958 16.7419 50.2697 16.7419H48.294L48.2812 13.5176H48.2807Z" fill="#12AFFF"/>
<path d="M22.8992 22.2813L23.1334 22.9689C23.6276 24.438 23.9397 25.2833 25.1879 25.2833C25.6368 25.2855 26.0699 25.1178 26.4003 24.814C26.7307 24.5101 26.934 24.0925 26.9693 23.645C26.9693 23.1247 26.8134 22.7608 26.4361 21.7596L23.4451 14.0641C22.7575 12.2828 22.4958 11.5677 21.8591 11.1387C21.3836 10.8257 20.8289 10.6543 20.2598 10.6445C19.6771 10.6454 19.1092 10.8272 18.6343 11.1648C18.0384 11.581 17.7634 12.2961 17.0758 14.0774L14.1113 21.8527C13.7212 22.88 13.6172 23.1921 13.6172 23.7119C13.6524 24.141 13.8465 24.5415 14.1616 24.8349C14.4767 25.1283 14.89 25.2935 15.3206 25.298C16.5816 25.298 16.8677 24.4527 17.3375 22.9968L17.5717 22.2817L22.8992 22.2813ZM18.4784 19.5639L20.2203 14.3383L21.9755 19.5639H18.4784Z" fill="#12AFFF"/>
<path d="M18.791 31.0717C18.7935 30.806 18.7364 30.5431 18.624 30.3023C18.5115 30.0615 18.3464 29.8491 18.141 29.6805C17.6213 29.3734 17.0547 29.1538 16.4637 29.0305C15.7097 28.8613 15.1504 28.7183 15.1504 28.3026C15.1504 27.9643 15.5667 27.7694 16.0603 27.7694C16.2381 27.766 16.4148 27.7971 16.5806 27.8611C16.8405 27.978 16.9185 28.0821 17.2306 28.5373C17.3024 28.6401 17.3976 28.7243 17.5084 28.7831C17.6192 28.8418 17.7424 28.8734 17.8678 28.8751C17.9568 28.8758 18.0448 28.8575 18.1261 28.8213C18.2074 28.7852 18.2801 28.7321 18.3391 28.6656C18.3982 28.5991 18.4424 28.5207 18.4687 28.4357C18.495 28.3507 18.5028 28.2611 18.4917 28.1728C18.4917 27.8868 18.1405 26.6647 16.1644 26.6647C14.7214 26.6647 13.6552 27.2758 13.6552 28.4327C13.6552 29.824 15.0464 30.1618 15.7743 30.3309C16.5935 30.5258 17.1917 30.6821 17.1917 31.2409C17.1917 31.7089 16.7108 31.9431 16.1516 31.9431C15.9144 31.9623 15.6774 31.9042 15.4759 31.7777C15.2744 31.6511 15.1193 31.4628 15.0335 31.2409C14.8905 30.9809 14.7736 30.5776 14.2543 30.5776C14.0735 30.5791 13.9007 30.6524 13.7739 30.7814C13.6471 30.9103 13.5767 31.0843 13.5781 31.2652C13.5781 31.8111 14.0984 33.0987 16.1786 33.0987C17.9599 33.1249 18.7914 32.1888 18.7914 31.0703L18.791 31.0717ZM23.5124 29.9537C23.5124 29.5764 23.5124 27.9253 24.9165 27.9253C25.1822 27.9156 25.4442 27.9894 25.6658 28.1363C25.8874 28.2833 26.0574 28.4959 26.1519 28.7444C26.2688 29.0195 26.4269 29.3404 26.8798 29.3404C27.065 29.3371 27.2417 29.262 27.3727 29.131C27.5037 29 27.5788 28.8233 27.5821 28.6381C27.5821 27.9748 26.9188 26.6748 24.9165 26.6748C23.0829 26.6748 21.9131 27.9491 21.9131 29.9253C21.8751 30.7818 22.1685 31.62 22.7323 32.2658C23.0163 32.5681 23.365 32.8022 23.7523 32.9508C24.1396 33.0994 24.5554 33.1586 24.9688 33.1239C25.3039 33.1534 25.6415 33.1144 25.9611 33.0094C26.2807 32.9044 26.5757 32.7354 26.828 32.5129C27.0497 32.3289 27.2311 32.1011 27.3608 31.8438C27.4906 31.5866 27.5659 31.3053 27.5821 31.0176C27.5808 30.8317 27.5065 30.6538 27.375 30.5224C27.2436 30.3909 27.0657 30.3166 26.8798 30.3154C26.7164 30.3212 26.5594 30.3802 26.4326 30.4835C26.3059 30.5868 26.2163 30.7286 26.1775 30.8874C26.1159 31.121 25.9917 31.3334 25.8184 31.5017C25.6451 31.6701 25.4292 31.788 25.1939 31.8428C24.9586 31.8976 24.7128 31.8873 24.4829 31.8129C24.253 31.7385 24.0478 31.6028 23.8892 31.4205C23.6683 31.1735 23.512 30.7705 23.512 29.9514L23.5124 29.9537ZM32.5616 29.1084V28.0032C32.5616 27.4312 32.5744 27.1451 32.3535 26.9242C32.1945 26.7674 31.9808 26.6788 31.7575 26.6771C31.5386 26.6835 31.3299 26.7716 31.1726 26.9242C30.9645 27.1323 30.9645 27.4183 30.9645 27.9904V31.8001C30.9645 32.3722 30.9645 32.671 31.1726 32.8792C31.3316 33.0359 31.5453 33.1246 31.7686 33.1262C31.9875 33.1199 32.1962 33.0317 32.3535 32.8792C32.5616 32.671 32.5616 32.385 32.5616 31.8129V30.4098H34.8467V31.801C34.8467 32.3731 34.8467 32.672 35.0548 32.8801C35.2137 33.0368 35.4275 33.1255 35.6507 33.1271C35.8704 33.1239 36.0801 33.0353 36.2356 32.8801C36.4437 32.672 36.4437 32.3859 36.4437 31.8138V28.0174C36.4437 27.4454 36.4437 27.1465 36.2228 26.9251C36.067 26.7703 35.8574 26.6818 35.6378 26.678C35.5288 26.6782 35.4209 26.7002 35.3205 26.7426C35.2201 26.785 35.1291 26.8471 35.0529 26.9251C34.8448 27.1332 34.8448 27.4321 34.8448 28.0041V29.0965L32.5565 29.1093L32.5616 29.1084ZM39.7776 29.8753C39.7776 31.7863 40.7916 33.1258 42.9112 33.1258C45.0954 33.1258 46.0314 31.6828 46.0314 29.8881C46.0314 28.0679 45.0821 26.6766 42.8722 26.6766C40.7269 26.6766 39.7776 28.1458 39.7776 29.8753ZM41.3898 29.8753C41.3898 28.6399 41.9229 27.9381 42.9112 27.9381C44.4326 27.9381 44.4326 29.5242 44.4326 29.8753C44.4548 30.3193 44.3654 30.7618 44.1727 31.1625C44.0448 31.3819 43.8602 31.5628 43.6383 31.6863C43.4165 31.8099 43.1655 31.8715 42.9116 31.8647C42.7028 31.8699 42.4956 31.8269 42.3062 31.739C42.1167 31.651 41.9501 31.5206 41.8193 31.3577C41.4965 30.9345 41.3434 30.406 41.3902 29.8758L41.3898 29.8753ZM50.9202 31.7345V28.0032C50.9202 27.4312 50.9202 27.1451 50.7121 26.9242C50.5532 26.7674 50.3394 26.6788 50.1162 26.6771C49.8972 26.6835 49.6885 26.7716 49.5313 26.9242C49.3232 27.1323 49.3232 27.4183 49.3232 27.9904V31.6699C49.3232 32.346 49.3232 32.5542 49.5574 32.7751C49.8045 33.0093 49.9347 33.0093 50.6626 33.0093H53.016C53.484 33.0093 53.7182 33.0093 53.9002 32.8402C54.0243 32.7107 54.094 32.5386 54.095 32.3593C54.0933 32.2714 54.074 32.1847 54.0382 32.1043C54.0025 32.0239 53.951 31.9515 53.8869 31.8913C53.7178 31.7222 53.4707 31.7222 53.016 31.7222L50.9225 31.735L50.9202 31.7345ZM60.9448 31.7996L61.0489 32.0985C61.2698 32.7485 61.4 33.1125 61.9592 33.1125C62.1571 33.1124 62.3477 33.0372 62.4923 32.9021C62.6369 32.7669 62.7249 32.582 62.7385 32.3845C62.7132 32.095 62.6337 31.8128 62.5042 31.5526L61.191 28.1605C60.8921 27.3812 60.7747 27.0681 60.4887 26.8733C60.2813 26.7324 60.0371 26.6556 59.7864 26.6523C59.5315 26.6541 59.2828 26.7309 59.0713 26.8733C58.8114 27.0566 58.6941 27.3674 58.3838 28.1605L57.0705 31.6057C56.9452 31.8622 56.8702 32.1402 56.8495 32.4249C56.865 32.6149 56.951 32.7922 57.0905 32.9221C57.23 33.052 57.413 33.1251 57.6036 33.1271C58.1628 33.1271 58.2797 32.7499 58.4878 32.1132L58.5919 31.801L60.9448 31.7996ZM58.9943 30.6037L59.7603 28.3012L60.5396 30.6023L58.9943 30.6037ZM69.5374 32.1622C69.9146 32.8122 70.1333 33.1505 70.6687 33.1505C70.7594 33.1585 70.8508 33.1482 70.9375 33.1203C71.0242 33.0924 71.1044 33.0474 71.1735 32.9881C71.2426 32.9287 71.2991 32.8561 71.3397 32.7746C71.3803 32.6931 71.4041 32.6042 71.4099 32.5134C71.3093 32.0008 71.0957 31.517 70.7847 31.0974C70.5538 30.7338 70.2308 30.4378 69.8486 30.2393C70.1717 30.1678 70.4797 30.0401 70.7585 29.862C70.9627 29.7026 71.1258 29.4967 71.2343 29.2615C71.3428 29.0263 71.3936 28.7685 71.3824 28.5098C71.3993 28.1744 71.3105 27.8422 71.1286 27.56C70.9467 27.2777 70.6808 27.0597 70.3684 26.9365C69.9049 26.7987 69.4212 26.7415 68.9383 26.7674H67.3389C66.6628 26.7674 66.4547 26.7674 66.2466 27.0016C66.0123 27.2487 66.0123 27.3789 66.0123 28.1068V31.7992C66.0123 32.3713 66.0123 32.6701 66.2204 32.8782C66.3794 33.035 66.5931 33.1236 66.8164 33.1253C67.036 33.1221 67.2458 33.0335 67.4013 32.8782C67.6094 32.6701 67.6094 32.3841 67.6094 31.812V30.4598H67.8175C68.3378 30.4598 68.5587 30.5249 69.0785 31.3958L69.5337 32.1627L69.5374 32.1622ZM67.6121 27.9368H68.522C69.1069 27.9368 69.7702 27.9368 69.7702 28.639C69.7702 29.3413 69.068 29.3669 68.4831 29.3669H67.6121V27.9368Z" fill="#12AFFF" stroke="#12AFFF" stroke-width="0.216" stroke-miterlimit="10"/>
<path fill-rule="evenodd" clip-rule="evenodd" d="M70.8003 21.3209C70.7741 21.1908 70.7874 21.2691 70.5142 21.1128L68.291 19.8257C68.5408 19.2949 68.6865 18.7212 68.7201 18.1356C68.8502 18.0966 71.5676 18.0838 72.0095 18.1227C72.4124 18.1489 72.4514 18.4606 72.4124 18.8378C72.3473 19.4337 71.9833 20.9959 71.6583 21.386C71.3595 21.711 71.034 21.3342 70.8003 21.3209ZM68.2791 16.302C68.7081 16.1072 70.2295 15.1707 70.8273 14.8457C71.0106 14.7416 71.1656 14.5858 71.4383 14.6509C71.7372 14.716 71.9586 15.4178 72.0494 15.7052C72.1837 16.1229 72.2922 16.5485 72.3744 16.9795C72.4523 17.4736 72.5825 18.0338 71.9843 18.0457C70.9442 18.0719 69.7872 18.0719 68.7466 18.0457C68.7275 17.7377 68.6752 17.4326 68.5908 17.1358C68.5129 16.8369 68.3048 16.4858 68.2786 16.3038L68.2791 16.302ZM68.2401 16.2369C68.1484 16.1718 67.9541 15.834 67.6942 15.5736C67.4828 15.3702 67.2526 15.1874 67.0066 15.0277C67.1995 14.6291 67.4166 14.2428 67.6566 13.8707L68.6577 12.1416C68.8136 11.9335 69.035 11.9074 69.3077 12.0898L70.4001 13.0259L71.1413 13.9101C71.5703 14.506 70.9854 14.6642 70.5821 14.9112L68.2392 16.2369H68.2401ZM65.0809 10.9324L65.1327 11.0626C65.1716 12.1678 65.1327 13.377 65.1455 14.5078L64.9764 14.5207C64.9537 14.5498 64.9276 14.576 64.8984 14.5986C65.5497 14.5457 66.2027 14.6774 66.7825 14.9786C67.3624 15.2798 67.8456 15.7383 68.1768 16.3016C68.5079 16.8649 68.6737 17.5101 68.655 18.1632C68.6363 18.8163 68.4339 19.451 68.071 19.9944L67.9018 20.1777C67.889 20.2556 67.928 20.1777 67.8629 20.2694L67.8757 20.3212C68.0448 20.2433 68.0966 20.009 68.2397 19.8793C68.5385 19.9833 70.5669 21.2966 70.8012 21.3095C70.8401 21.3874 70.775 21.3223 70.8791 21.4012C70.9182 21.4305 70.9623 21.4526 71.0093 21.4662C71.0816 21.5031 71.1475 21.5514 71.2045 21.6093C71.3604 21.6221 71.3086 21.6482 71.2696 21.5831C71.751 21.4791 71.7377 21.375 71.9196 20.9593C72.1539 20.4133 72.5697 18.957 72.4789 18.4239C72.4399 18.164 72.3097 18.1897 72.219 18.0466C72.5701 17.7478 72.5178 17.6437 72.4528 17.1367C72.3566 16.4587 72.1775 15.795 71.9196 15.1606C71.7638 14.7833 71.7115 14.6014 71.2696 14.5367C71.3865 14.1205 71.453 14.1338 70.9946 13.5741C70.4933 12.9399 69.8967 12.3872 69.2261 11.9358C68.9919 11.8056 68.8883 11.8968 68.6669 11.9486C68.6279 11.4806 68.3918 11.4545 68.0558 11.2986C67.2555 10.9746 66.4083 10.7814 65.5466 10.7266C65.3385 10.7527 65.2716 10.8824 65.1437 10.9865L65.0786 10.9347L65.0809 10.9324Z" fill="#E1812A"/>
<path fill-rule="evenodd" clip-rule="evenodd" d="M68.2773 16.2994C68.3631 16.5732 68.4628 16.8423 68.5762 17.1058C68.6545 17.404 68.7068 17.7084 68.7325 18.0157C69.7726 18.0418 70.93 18.0418 71.9701 18.0157C72.5661 18.0028 72.4382 17.4436 72.3602 16.9494C72.2843 16.517 72.1757 16.091 72.0352 15.6751C71.9436 15.3891 71.7364 14.7001 71.4242 14.6208C71.1492 14.5557 71.008 14.7125 70.8132 14.8156C70.2283 15.1668 68.7046 16.1028 68.2778 16.2981L68.2773 16.2994Z" fill="#F1D601"/>
<path fill-rule="evenodd" clip-rule="evenodd" d="M70.7994 21.3194C71.0337 21.3323 71.3587 21.7095 71.6447 21.3712C71.9697 20.9812 72.347 19.4208 72.3988 18.823C72.4377 18.4458 72.3859 18.1354 71.9958 18.1079C71.5539 18.0818 68.8361 18.0951 68.7064 18.1208C68.6727 18.7064 68.5271 19.2801 68.2773 19.8109L70.5005 21.098C70.7866 21.2672 70.7756 21.1897 70.7994 21.319V21.3194Z" fill="#BFD81A"/>
<path fill-rule="evenodd" clip-rule="evenodd" d="M65.2204 21.631C65.1815 22.1118 65.2204 22.749 65.2204 23.2431C65.2204 25.3233 65.0123 25.4535 66.3256 25.2454C66.7599 25.1786 67.1867 25.0698 67.6 24.9204C69.004 24.4524 68.7313 24.2704 68.1069 23.217C68.0029 23.0479 67.0146 21.2798 66.911 21.1758C66.636 21.2537 66.443 21.3967 66.1436 21.4747C65.8186 21.5663 65.5477 21.5668 65.2204 21.631Z" fill="#017338"/>
<path fill-rule="evenodd" clip-rule="evenodd" d="M64.9753 14.531L65.1444 14.5182C65.1316 13.3722 65.1706 12.1776 65.1316 11.0729C64.9886 10.9688 65.0537 10.8781 64.8066 10.8258C64.3253 10.7342 62.8694 11.138 62.3771 11.3461C61.5062 11.7234 61.6098 11.8013 62.13 12.6984L63.4433 14.9477C63.6776 14.8698 63.8724 14.7396 64.1309 14.6617C64.4063 14.5837 64.6902 14.54 64.9762 14.5315L64.9753 14.531Z" fill="#D82926"/>
<path fill-rule="evenodd" clip-rule="evenodd" d="M67.8737 20.3319C67.8476 20.501 67.3924 20.8521 67.2494 20.9557C67.1655 21.0034 67.0871 21.0601 67.0156 21.1249C67.0418 21.2807 67.7697 22.4771 67.9127 22.7242L68.6003 23.9073C68.9253 24.4666 69.3282 24.0765 69.7463 23.7515C70.1982 23.3816 70.6081 22.963 70.9683 22.5033C71.2544 22.126 71.3713 21.9963 71.2283 21.6323C71.1689 21.5775 71.1035 21.5295 71.0334 21.4893C70.9914 21.465 70.9479 21.4433 70.9033 21.4242C70.7992 21.3463 70.8643 21.4114 70.8253 21.3325C70.5911 21.3197 68.5632 20.0064 68.2638 19.9023C68.0947 20.0192 68.0296 20.2406 67.8737 20.3314V20.3319Z" fill="#32AB38"/>
<path fill-rule="evenodd" clip-rule="evenodd" d="M63.4011 21.1898C63.0633 21.8531 62.3349 23.0234 61.9191 23.7641C61.8151 23.9475 61.6592 24.1153 61.75 24.36C61.8407 24.6048 62.4912 24.8281 62.7772 24.9321C63.1967 25.0755 63.6272 25.1841 64.0644 25.2571C64.5714 25.335 65.1045 25.4519 65.1045 24.8152C65.1045 24.1785 65.1306 22.1497 65.1045 21.6298C64.9743 21.5909 64.7534 21.6037 64.5975 21.5648C64.1887 21.4738 63.7886 21.3475 63.4016 21.1875L63.4011 21.1898Z" fill="#005AA0"/>
<path fill-rule="evenodd" clip-rule="evenodd" d="M58.0176 17.9119C58.3554 18.0677 58.3948 18.0159 58.8106 18.0159H61.6192L61.6842 17.4049C61.7232 17.3132 61.7104 17.3398 61.7361 17.3132C61.6581 17.0272 62.0349 16.5069 62.0482 16.3249C61.9565 16.247 59.2396 14.6866 59.1356 14.6605C58.7194 14.5565 58.6153 14.8815 58.4984 15.1547C58.2469 15.7228 58.0719 16.3218 57.9781 16.936C57.952 17.1193 57.9263 17.2738 57.913 17.443C57.8976 17.5239 57.8989 17.6072 57.9168 17.6877C57.9347 17.7682 57.9688 17.8442 58.0171 17.911L58.0176 17.9119Z" fill="#AC2478"/>
<path fill-rule="evenodd" clip-rule="evenodd" d="M59.7733 21.228C59.3442 21.4751 58.7983 21.6309 59.1884 22.2291C59.684 22.9459 60.3052 23.5671 61.0219 24.0627C61.5812 24.44 61.7893 23.8156 61.9969 23.4517C62.1918 23.1138 63.2969 21.2803 63.3231 21.1244C62.9528 20.8838 62.6236 20.5853 62.3481 20.2402C62.2719 20.1231 62.1895 20.0104 62.101 19.9023L59.7737 21.2285L59.7733 21.228Z" fill="#213280"/>
<path fill-rule="evenodd" clip-rule="evenodd" d="M62.0497 19.8366C62.0236 19.6675 61.8288 19.2907 61.7508 19.0436C61.6729 18.7686 61.6592 18.3024 61.595 18.1076C60.5407 18.1465 59.4626 18.0947 58.4096 18.1076C57.7725 18.1204 57.9026 18.6278 57.9806 19.1215C58.0457 19.5767 58.4357 21.3319 58.8648 21.4749C59.1637 21.579 59.606 21.2279 60.0108 21.0069C60.388 20.786 60.6479 20.6297 61.0247 20.422C61.354 20.2048 61.6972 20.0094 62.052 19.8371L62.0497 19.8366Z" fill="#612E7D"/>
<path fill-rule="evenodd" clip-rule="evenodd" d="M62.0998 16.2368C62.3435 15.8845 62.6319 15.5654 62.9579 15.2875C63.088 15.1835 63.2178 15.1042 63.3218 15.0276L62.0085 12.687C61.4883 11.8551 61.5405 11.5819 60.2795 12.687L59.8243 13.1289C59.5949 13.3699 59.382 13.6261 59.1871 13.8958C58.797 14.4917 59.3819 14.6627 59.783 14.897C60.186 15.1179 60.5371 15.3389 60.9533 15.5731C61.2783 15.7564 61.8504 16.1323 62.0993 16.2364L62.0998 16.2368Z" fill="#DC3060"/>
<path fill-rule="evenodd" clip-rule="evenodd" d="M70.5808 14.8844C70.9837 14.6373 71.569 14.4815 71.14 13.8833L70.3974 13.0013L69.305 12.0653C69.2604 12.0231 69.2073 11.9907 69.1494 11.9703C69.0914 11.9499 69.0298 11.9418 68.9685 11.9467C68.9073 11.9516 68.8477 11.9693 68.7937 11.9986C68.7397 12.028 68.6925 12.0683 68.6551 12.1171L67.6539 13.8461C67.537 14.0543 67.0429 14.8734 67.0039 15.0031C67.2523 15.1596 67.4828 15.3426 67.6915 15.5491C67.9514 15.7962 68.1467 16.145 68.2375 16.2124L70.5775 14.8862L70.5808 14.8844Z" fill="#E5B62D"/>
<path fill-rule="evenodd" clip-rule="evenodd" d="M64.8052 10.6714C66.4733 10.5935 68.1188 11.0812 69.4751 12.0553C70.8314 13.0295 71.8191 14.4331 72.278 16.0387C72.7369 17.6443 72.6403 19.3578 72.0038 20.9016C71.3672 22.4455 70.228 23.7291 68.7708 24.5446C68.6539 24.6097 68.6149 24.6225 68.4847 24.6876C67.5003 25.1769 66.4193 25.4407 65.3202 25.4598C64.2211 25.479 63.1315 25.253 62.1307 24.7983C61.1298 24.3437 60.2429 23.6717 59.5342 22.8314C58.8256 21.991 58.3131 21.0033 58.034 19.94C57.7548 18.8768 57.7161 17.7647 57.9206 16.6846C58.1251 15.6045 58.5676 14.5836 59.2161 13.6959C59.8646 12.8083 60.7027 12.0763 61.6694 11.5531C62.6362 11.0299 63.7074 10.7287 64.8052 10.6714ZM64.5843 10.6196C63.5698 10.6977 62.5825 10.9855 61.6849 11.4648C60.4907 12.0957 59.4896 13.0382 58.7879 14.1922C58.0862 15.3462 57.7101 16.6687 57.6994 18.0192C57.6888 19.3698 58.0442 20.6981 58.7277 21.8629C59.4112 23.0278 60.3974 23.9859 61.5815 24.6354C62.7657 25.285 64.1037 25.6017 65.4534 25.552C66.8031 25.5024 68.1141 25.0882 69.2474 24.3534C70.3806 23.6186 71.2937 22.5906 71.8898 21.3786C72.4858 20.1667 72.7426 18.8159 72.6327 17.4698C72.5554 16.4587 72.2675 15.475 71.7874 14.5819C71.3644 13.7975 70.8103 13.0911 70.1492 12.4935C69.3963 11.8214 68.515 11.309 67.5585 10.9872C66.6021 10.6654 65.5902 10.541 64.5843 10.6214V10.6196Z" fill="#E48B3C"/>
<path fill-rule="evenodd" clip-rule="evenodd" d="M65.2217 21.633C65.5467 21.5679 65.8176 21.5679 66.1449 21.49C66.4438 21.4121 66.6391 21.2691 66.9118 21.1911C67.0035 21.2828 68.0041 23.0632 68.1077 23.2324C68.7321 24.2867 68.992 24.4677 67.6008 24.9357C67.1875 25.0851 66.7607 25.194 66.3264 25.2607C65.0131 25.4689 65.2212 25.3387 65.2212 23.2585C65.1887 22.7172 65.1887 22.1744 65.2212 21.633H65.2217ZM63.4014 21.1911C63.7943 21.351 64.1985 21.4814 64.6107 21.5812C64.7813 21.5876 64.951 21.6094 65.1176 21.6463C65.1566 22.1533 65.1305 24.1945 65.1176 24.8317C65.1176 25.4817 64.5845 25.352 64.0775 25.2736C63.6387 25.2084 63.2075 25.0995 62.7904 24.9486C62.4915 24.8445 61.8543 24.6236 61.7631 24.3765C61.6719 24.1294 61.8282 23.9603 61.9323 23.7806C62.3352 23.0394 63.0782 21.8553 63.4014 21.1934V21.1911ZM62.1014 19.8911C62.1793 19.9828 62.2706 20.1254 62.3485 20.229C62.6276 20.5707 62.9562 20.8687 63.3235 21.1132C63.2974 21.2824 62.1775 23.1155 61.9974 23.4405C61.7892 23.8044 61.5811 24.4288 61.0224 24.0515C60.3056 23.5559 59.6844 22.9347 59.1888 22.2179C58.7987 21.622 59.3446 21.4639 59.7737 21.2168L62.1009 19.8907L62.1014 19.8911ZM62.0496 19.8393C61.6921 20.0144 61.3448 20.2097 61.0095 20.4242C60.6327 20.6324 60.3856 20.8015 59.9956 21.0092C59.5926 21.2434 59.1503 21.5941 58.8496 21.4772C58.4334 21.3213 58.0304 19.579 57.9653 19.1238C57.9002 18.6429 57.7705 18.1227 58.3944 18.1098C59.4487 18.097 60.5268 18.1488 61.5798 18.1098C61.6449 18.2932 61.6577 18.7598 61.7356 19.0459C61.8545 19.3041 61.9587 19.5689 62.0478 19.8389L62.0496 19.8393ZM58.019 17.9141H57.9672C58.0323 18.0058 58.0061 17.9659 58.1102 18.0443L57.941 18.2134C57.6811 18.5256 57.9933 19.6826 58.0841 20.0209C58.1729 20.3393 58.2814 20.6519 58.4091 20.9569C58.5392 21.2819 58.6172 21.5418 59.0591 21.5528C58.9032 22.0859 59.1242 22.2289 59.3579 22.5411C59.7531 23.0317 60.1975 23.4805 60.6841 23.8805C60.8143 23.9846 61.3212 24.4265 61.5683 24.1556C61.66 24.2335 61.5811 24.1556 61.6334 24.2472L61.6857 24.4164C61.869 24.8716 63.7791 25.3006 64.221 25.3524C65.1053 25.4565 64.871 25.3135 65.1571 25.1182C65.274 25.2484 65.3001 25.3524 65.521 25.3932C66.0541 25.4849 67.5233 25.0421 68.0692 24.8083C68.7064 24.5333 68.5373 24.4962 68.6803 24.1844C68.9012 24.2495 69.0053 24.3146 69.2395 24.1844C70.0331 23.6408 70.7173 22.9527 71.2564 22.1561C71.3995 21.909 71.3215 21.8439 71.2564 21.5968C71.2826 21.6486 71.3481 21.6358 71.1913 21.6229C71.3344 22.0002 71.2175 22.1299 70.9314 22.4939C70.5747 22.9566 70.1645 23.3756 69.7094 23.7421C69.3064 24.0671 68.9031 24.4572 68.5634 23.8979L67.8758 22.7148C67.7328 22.4678 67.0048 21.2718 66.9787 21.1155C67.0504 21.0507 67.1289 20.994 67.213 20.9464C67.3688 20.8423 67.8089 20.4912 67.8373 20.3225L67.8245 20.2707C67.7076 20.3876 67.4472 20.7259 67.2913 20.7648L67.1997 20.8689C67.1735 20.8962 67.1424 20.9183 67.108 20.934C66.4091 21.4108 65.5605 21.6171 64.7207 21.5142C63.8809 21.4113 63.1073 21.0062 62.5442 20.3747L62.2582 19.9975C61.3611 18.6191 61.764 17.6964 61.7122 17.293C61.6861 17.3191 61.6861 17.293 61.6604 17.3846L61.5953 17.9957H58.7868C58.3967 18.0218 58.3449 18.0736 58.0194 17.9178L58.019 17.9141Z" fill="#C77727"/>
<path fill-rule="evenodd" clip-rule="evenodd" d="M64.3761 18.9271C64.5496 19.0596 64.7534 19.1468 64.9691 19.1808C65.1848 19.2148 65.4055 19.1946 65.6114 19.1219C65.7264 19.0687 65.8353 19.0034 65.9364 18.9271C66.0533 18.9789 66.8335 19.7981 67.0416 20.0062C67.1585 20.1231 67.3405 20.2532 67.3015 20.5132C67.2099 20.994 65.4551 21.7742 63.947 21.1765C63.6481 21.0596 63.115 20.7864 63.0499 20.5805C62.933 20.2555 63.297 19.9956 63.622 19.6706C63.8691 19.4364 64.1029 19.1898 64.3761 18.9294V18.9271ZM64.922 17.0289C65.0595 16.9964 65.2022 16.9917 65.3416 17.0149C65.4809 17.0381 65.6143 17.0888 65.7339 17.1641C65.8535 17.2393 65.9569 17.3377 66.0381 17.4533C66.1193 17.569 66.1767 17.6996 66.2069 17.8376C66.2371 17.9757 66.2396 18.1184 66.2141 18.2574C66.1886 18.3963 66.1357 18.5289 66.0584 18.6472C65.9812 18.7656 65.8812 18.8673 65.7643 18.9466C65.6473 19.0259 65.5157 19.0812 65.3772 19.1091C63.986 19.4226 63.6087 17.3163 64.922 17.0303V17.0289ZM64.311 18.8492C64.2331 18.9794 63.4267 19.7463 63.2186 19.9544C63.1628 20.0359 63.0867 20.1016 62.9978 20.1449C62.9089 20.1882 62.8103 20.2077 62.7116 20.2014C62.2565 20.1098 61.8407 18.7974 61.8274 18.0823V18.0433C61.8274 17.3557 62.2303 16.0539 62.6855 15.9242C62.7774 15.9041 62.8732 15.9134 62.9595 15.9508C63.0457 15.9881 63.1181 16.0516 63.1664 16.1323C63.4414 16.4073 64.1547 17.0816 64.2977 17.2783C64.1358 17.5039 64.0371 17.7686 64.0116 18.0452C64.0294 18.3377 64.1335 18.6183 64.311 18.8515V18.8492ZM66.0144 17.2907L67.1195 16.1726C67.2364 16.0686 67.3538 15.8866 67.6265 15.9384C68.0946 16.0425 68.8747 17.7587 68.2637 19.3057C68.0556 19.8389 67.6916 20.5668 67.1585 19.9933L66.4045 19.2393C66.2689 19.1145 66.1428 18.9798 66.0272 18.8364C66.1616 18.6638 66.2499 18.4599 66.284 18.2438C66.3181 18.0277 66.2967 17.8066 66.222 17.601C66.1569 17.4708 66.0529 17.3929 66.0139 17.2888L66.0144 17.2907ZM63.622 16.4715C63.0499 15.8994 62.504 15.5616 63.9081 14.9895C64.3078 14.8242 64.7365 14.7402 65.1691 14.7425C65.601 14.7466 66.0285 14.8303 66.4301 14.9895C66.7052 15.0936 67.2493 15.3668 67.2882 15.6267C67.2974 15.7257 67.2791 15.8253 67.2356 15.9147C67.192 16.0041 67.1248 16.0798 67.0412 16.1337C66.8331 16.3418 66.04 17.1609 65.9231 17.2127C65.6371 17.0697 65.5981 16.9267 65.1168 16.9267C64.6616 16.9395 64.5576 17.1609 64.3499 17.2017L63.622 16.4738V16.4715ZM67.2891 20.7621C67.3678 20.6149 67.3953 20.4457 67.3671 20.2812C67.5431 20.3102 67.7237 20.2732 67.8741 20.1772C67.913 20.0603 68.095 19.8132 68.1729 19.6569C68.4269 19.1745 68.5617 18.6384 68.5663 18.0933C68.5708 17.5481 68.4449 17.0098 68.1991 16.5233C67.8869 15.9384 67.8351 15.86 67.3799 15.86C67.3277 15.4181 67.3538 15.3269 66.5608 14.9629C66.1223 14.7693 65.6488 14.6676 65.1695 14.6641C64.6817 14.6662 64.1994 14.7679 63.7522 14.9629C63.1929 15.21 62.9069 15.3659 62.9592 15.86C62.843 15.8242 62.718 15.8307 62.6062 15.8783C62.4943 15.9258 62.4029 16.0114 62.3481 16.1199C62.0143 16.6065 61.8125 17.1714 61.7623 17.7594C61.7122 18.3474 61.8155 18.9383 62.0621 19.4744C62.1511 19.6579 62.2509 19.8359 62.361 20.0076C62.4099 20.1144 62.4971 20.1991 62.6054 20.2448C62.7137 20.2906 62.8351 20.2941 62.9459 20.2546C62.933 20.5535 62.9587 20.6837 63.1668 20.8267C63.6051 21.1414 64.1122 21.3469 64.6459 21.4261C65.1796 21.5052 65.7246 21.4558 66.2353 21.2819C66.4262 21.2209 66.6094 21.138 66.7812 21.0348C66.9562 20.9546 67.1256 20.8627 67.2882 20.7598L67.2891 20.7621Z" fill="#E48B3C"/>
<path fill-rule="evenodd" clip-rule="evenodd" d="M62.101 16.2347C61.854 16.1178 61.2691 15.7539 60.9441 15.5714C60.5278 15.3505 60.1767 15.1295 59.7738 14.8953C59.3709 14.6743 58.7855 14.4924 59.1779 13.8942C59.3727 13.6243 59.5856 13.368 59.815 13.1268L60.2702 12.6849C61.5313 11.5669 61.4923 11.8396 61.9993 12.6849L63.3254 15.0255C63.2214 15.1172 63.0783 15.1946 62.9615 15.2854C62.6393 15.5672 62.3513 15.8858 62.1033 16.2347H62.101ZM57.9663 17.9248H58.0186C57.9703 17.858 57.9361 17.782 57.9182 17.7015C57.9003 17.6211 57.8991 17.5378 57.9145 17.4568C57.9274 17.2734 57.9535 17.1318 57.9796 16.9498C58.0856 16.3384 58.2601 15.7408 58.4999 15.1685C58.6168 14.8935 58.7209 14.5726 59.1371 14.6743C59.2411 14.7005 61.9585 16.2737 62.0497 16.3388C62.0369 16.5221 61.6724 17.041 61.7375 17.3271L61.8416 17.0672C61.9355 16.8036 62.0486 16.5473 62.1799 16.3003C62.4641 15.8224 62.8597 15.4203 63.3328 15.1283C63.806 14.8363 64.3427 14.6629 64.8972 14.623C64.9293 14.6039 64.9561 14.5771 64.9752 14.5451C64.6886 14.5577 64.4047 14.6058 64.1299 14.6881C63.87 14.766 63.6747 14.8962 63.4423 14.9741L62.129 12.7248C61.6087 11.8277 61.5051 11.7498 62.3761 11.3725C62.8831 11.1516 64.3265 10.7615 64.8056 10.8523C65.0526 10.8912 64.9889 10.9953 65.1306 11.0993L65.0788 10.9692C64.9357 10.5529 63.4923 10.943 63.1416 11.0471C62.8409 11.1333 62.5456 11.2376 62.2574 11.3592C61.8801 11.5151 61.7371 11.5284 61.6614 11.9964C61.2585 11.8795 61.2452 11.8406 60.7254 12.2563C60.0948 12.7549 59.539 13.3416 59.0752 13.9982C58.9322 14.2581 59.0234 14.3622 59.0752 14.5703C58.6461 14.6221 58.6072 14.7651 58.4642 15.1162C58.2171 15.6232 57.5538 17.6126 57.97 17.9248H57.9663Z" fill="#E56725"/>
<path fill-rule="evenodd" clip-rule="evenodd" d="M66.0534 18.2912C66.0261 18.4086 65.9757 18.5194 65.9051 18.6172C65.8345 18.715 65.7452 18.7977 65.6424 18.8607C65.5395 18.9236 65.4252 18.9654 65.306 18.9837C65.1868 19.002 65.0652 18.9964 64.9482 18.9673C64.8287 18.9388 64.7162 18.8867 64.6172 18.814C64.5181 18.7413 64.4347 18.6496 64.3717 18.5442C64.3086 18.4387 64.2674 18.3218 64.2503 18.2001C64.2332 18.0785 64.2406 17.9547 64.2721 17.836C64.5709 16.7047 66.3523 17.108 66.0534 18.2912ZM64.9354 17.108C64.809 17.1396 64.69 17.1958 64.5853 17.2733C64.4806 17.3509 64.3922 17.4483 64.3251 17.56C64.258 17.6717 64.2136 17.7955 64.1944 17.9244C64.1752 18.0533 64.1816 18.1847 64.2132 18.3111C64.2447 18.4375 64.3009 18.5565 64.3785 18.6612C64.456 18.7659 64.5534 18.8543 64.6651 18.9214C64.7768 18.9884 64.9007 19.0328 65.0295 19.052C65.1584 19.0712 65.2898 19.0649 65.4162 19.0333C66.6388 18.7335 66.2225 16.7963 64.9354 17.108Z" fill="#E48B3C"/>
<path fill-rule="evenodd" clip-rule="evenodd" d="M67.2895 20.7616L67.3024 20.7744C67.4582 20.7355 67.7186 20.3972 67.8355 20.2803C67.9006 20.1886 67.8616 20.2542 67.8744 20.1886L67.8611 20.1758C67.7883 20.2271 67.7057 20.2628 67.6185 20.2807C67.5313 20.2986 67.4413 20.2983 67.3542 20.2798C67.3763 20.3602 67.3819 20.4443 67.3707 20.5269C67.3595 20.6095 67.3317 20.6891 67.2891 20.7607L67.2895 20.7616Z" fill="white"/>
</svg>
