<svg width="31" height="39" viewBox="0 0 31 39" fill="none" xmlns="http://www.w3.org/2000/svg">
<g id="Group 1000003646">
<path id="Vector" d="M27.6967 16.0471C28.4087 7.44689 24.1061 0.90625 14.2098 0.90625C-0.502704 0.90625 -3.91903 19.4214 6.34765 26.7658C6.7161 32.6439 4.25944 36.8053 3.98437 38.7777L20.7554 38.7451C20.7554 35.2647 17.9542 32.6801 20.2462 31.6769C21.6274 31.0723 26.1303 33.4084 27.238 32.0297C28.046 28.5709 28.8168 29.1572 28.8168 27.9035C27.0883 26.5868 27.1872 26.4103 28.926 25.8488L28.9419 23.1488L30.9993 22.7606C30.4238 19.3607 27.6967 18.4629 27.6967 16.0471ZM16.1972 7.25262H16.9912L18.0546 5.66195C17.9554 5.47803 17.899 5.2676 17.899 5.04397C17.899 4.3238 18.4828 3.74001 19.203 3.74001C19.9232 3.74001 20.507 4.3238 20.507 5.04397C20.507 5.76406 19.9232 6.34793 19.203 6.34793C19.1585 6.34793 19.1145 6.34571 19.0711 6.34134L17.8527 8.16376C17.748 8.35197 17.5472 8.47931 17.3165 8.47931H16.1972V7.25262ZM14.9706 7.25262V8.47923V9.44227C12.1747 9.44234 9.90826 11.7088 9.90826 14.5047C9.90826 17.3006 12.1748 19.5671 14.9706 19.5671V24.2403H13.346V22.6099C12.2702 22.3954 11.2699 21.9722 10.3887 21.3843L9.23531 22.5376L6.9378 20.24L8.09112 19.0867C7.50304 18.2056 7.08001 17.2051 6.86543 16.1294H5.23512V12.8802H6.86543C7.07986 11.8044 7.50312 10.804 8.09112 9.92287L6.9378 8.76948L9.23539 6.47197L10.3886 7.62521C11.2697 7.03713 12.2702 6.61402 13.346 6.39945V4.76936H14.9706V7.25262ZM19.2031 25.2696C18.4829 25.2696 17.8991 24.6858 17.8991 23.9657C17.8991 23.742 17.9555 23.5316 18.0547 23.3476L16.9913 21.7569H16.1973V20.5303H17.3166C17.5472 20.5303 17.7481 20.6576 17.8528 20.8459L19.0711 22.6683C19.1145 22.6639 19.1585 22.6617 19.2031 22.6617C19.9233 22.6617 20.507 23.2455 20.507 23.9657C20.507 24.6858 19.9232 25.2696 19.2031 25.2696ZM21.6572 21.3652C20.937 21.3652 20.3533 20.7815 20.3533 20.0613C20.3533 20.0555 20.3534 20.0496 20.3535 20.0439L17.952 18.7284H16.1973V17.5017H18.1044C18.23 17.5017 18.3468 17.5395 18.444 17.6044L20.9405 18.972C21.1462 18.8364 21.3924 18.7574 21.6572 18.7574C22.3774 18.7574 22.9612 19.3412 22.9612 20.0614C22.9611 20.7814 22.3773 21.3652 21.6572 21.3652ZM21.6572 15.8087C21.1588 15.8087 20.7258 15.5291 20.5063 15.1181H16.1972V13.8915H20.5063C20.7258 13.4806 21.1588 13.2008 21.6572 13.2008C22.3774 13.2008 22.9612 13.7846 22.9612 14.5048C22.9611 15.2249 22.3773 15.8087 21.6572 15.8087ZM21.6572 10.2523C21.3924 10.2523 21.1461 10.1733 20.9405 10.0377L18.444 11.4053C18.3468 11.4702 18.23 11.5079 18.1044 11.5079H16.1973V10.2813H17.952L20.3535 8.96581C20.3534 8.95998 20.3533 8.95423 20.3533 8.94841C20.3533 8.22824 20.937 7.64445 21.6572 7.64445C22.3774 7.64445 22.9612 8.22824 22.9612 8.94841C22.9611 9.6685 22.3773 10.2523 21.6572 10.2523Z" fill="white"/>
</g>
</svg>
