<svg width="36" height="30" viewBox="0 0 36 30" fill="none" xmlns="http://www.w3.org/2000/svg">
<path id="Vector" d="M18 11.6667L12.2727 5.83333L18 0L23.7273 5.83333L18 11.6667ZM0 30V23.3333C0 22.3889 0.320455 21.5972 0.961364 20.9583C1.60227 20.3194 2.37273 20 3.27273 20H8.63182C9.17727 20 9.69545 20.1389 10.1864 20.4167C10.6773 20.6944 11.0727 21.0694 11.3727 21.5417C12.1636 22.625 13.1386 23.4722 14.2977 24.0833C15.4568 24.6944 16.6909 25 18 25C19.3364 25 20.5841 24.6944 21.7432 24.0833C22.9023 23.4722 23.8636 22.625 24.6273 21.5417C24.9818 21.0694 25.3977 20.6944 25.875 20.4167C26.3523 20.1389 26.85 20 27.3682 20H32.7273C33.6545 20 34.4318 20.3194 35.0591 20.9583C35.6864 21.5972 36 22.3889 36 23.3333V30H24.5455V26.2083C23.5909 26.9028 22.5614 27.4306 21.4568 27.7917C20.3523 28.1528 19.2 28.3333 18 28.3333C16.8273 28.3333 15.6818 28.1458 14.5636 27.7708C13.4455 27.3958 12.4091 26.8611 11.4545 26.1667V30H0ZM4.90909 18.3333C3.54545 18.3333 2.38636 17.8472 1.43182 16.875C0.477273 15.9028 0 14.7222 0 13.3333C0 11.9167 0.477273 10.7292 1.43182 9.77083C2.38636 8.8125 3.54545 8.33333 4.90909 8.33333C6.3 8.33333 7.46591 8.8125 8.40682 9.77083C9.34773 10.7292 9.81818 11.9167 9.81818 13.3333C9.81818 14.7222 9.34773 15.9028 8.40682 16.875C7.46591 17.8472 6.3 18.3333 4.90909 18.3333ZM31.0909 18.3333C29.7273 18.3333 28.5682 17.8472 27.6136 16.875C26.6591 15.9028 26.1818 14.7222 26.1818 13.3333C26.1818 11.9167 26.6591 10.7292 27.6136 9.77083C28.5682 8.8125 29.7273 8.33333 31.0909 8.33333C32.4818 8.33333 33.6477 8.8125 34.5886 9.77083C35.5295 10.7292 36 11.9167 36 13.3333C36 14.7222 35.5295 15.9028 34.5886 16.875C33.6477 17.8472 32.4818 18.3333 31.0909 18.3333Z" fill="white"/>
</svg>
