<svg width="40" height="41" viewBox="0 0 40 41" fill="none" xmlns="http://www.w3.org/2000/svg">
<g id="Group">
<g id="Group_2">
<g id="Group_3">
<g id="Group_4">
<path id="Vector" d="M12.6877 36.0393C12.721 35.7981 12.9437 35.6297 13.1844 35.6627C13.4254 35.696 13.5939 35.9186 13.5606 36.1598L12.9614 40.504H27.1893L26.5902 36.1598C26.5568 35.9186 26.7253 35.696 26.9664 35.6627C27.2069 35.6297 27.4298 35.798 27.4631 36.0393L28.0788 40.504H31.1242L29.7985 30.4554C29.4943 28.1502 27.9783 26.151 25.8417 25.2378C24.9174 24.8428 23.9475 24.541 22.9561 24.3398C22.9043 24.3662 22.8521 24.3916 22.7997 24.4165V26.2369C22.7997 27.7811 21.5445 29.0376 20.0017 29.0376C18.4586 29.0376 17.2034 27.7812 17.2034 26.2369V24.4165C17.1509 24.3916 17.0988 24.3662 17.047 24.3398C16.0556 24.541 15.0857 24.8428 14.1614 25.2378C12.0249 26.151 10.5088 28.1502 10.2046 30.4554L8.87891 40.504H12.0719L12.6877 36.0393Z" fill="white"/>
<path id="Vector_2" d="M20.4275 25.0346C19.6392 25.0865 18.8368 24.9946 18.082 24.7617V26.2383C18.082 27.2962 18.9419 28.1569 19.9989 28.1569C21.0562 28.1569 21.9161 27.2962 21.9161 26.2383V24.7617C21.4338 24.9105 20.9311 25.0017 20.4275 25.0346Z" fill="white"/>
</g>
<path id="Vector_3" d="M9.07089 30.4579C9.37391 28.1617 10.6796 26.1193 12.5807 24.8645C11.6144 24.3925 10.0313 24.3979 8.69734 25.7865C8.69734 25.7865 7.46842 23.0955 4.69652 24.9378L6.50943 20.6108L6.91939 20.7975C7.62929 21.1207 8.46655 20.8058 8.78795 20.0946L9.1214 19.3568C9.5882 18.324 9.03182 17.1169 7.94385 16.8021L6.65688 16.4296C5.03886 15.9612 3.32458 16.7664 2.65169 18.3108L0.417624 23.4379C-0.430837 25.3852 0.0359615 27.672 1.61381 29.093C3.7312 30.9999 6.56739 31.6236 8.8983 31.7666L9.07089 30.4579Z" fill="white"/>
<g id="Group_5">
<path id="Vector_4" d="M39.585 23.4342L37.3509 18.3069C36.678 16.7625 34.9637 15.9573 33.3457 16.4257L32.0588 16.7982C30.9708 17.1131 30.4144 18.3201 30.8812 19.3529L31.2146 20.0907C31.536 20.8019 32.3733 21.1168 33.0832 20.7935L33.4932 20.6069L35.3061 24.9339C32.5342 23.0916 31.3053 25.7826 31.3053 25.7826C29.9713 24.394 28.3882 24.3886 27.4219 24.8606C29.323 26.1154 30.6288 28.1579 30.9318 30.454L31.1045 31.7627C33.4353 31.6197 36.2716 30.996 38.389 29.0891C39.9666 27.6683 40.4334 25.3815 39.585 23.4342Z" fill="white"/>
</g>
</g>
<g id="Group_6">
<path id="Vector_5" d="M15.8452 10.4266C15.3738 10.8366 14.5589 11.8482 14.1007 13.0468C13.6983 14.099 13.5952 15.2655 13.7927 16.5199C13.8678 16.5116 13.9431 16.5072 14.0183 16.5066L15.5638 14.1987C15.7658 13.8973 16.1752 13.9915 16.3468 14.2635C17.2035 15.3776 18.5533 16.035 19.9584 16.0177C21.3373 16.0023 22.5991 15.3747 23.4443 14.2929V13.8985C23.4443 13.2988 22.9569 12.8109 22.3578 12.8109C22.1145 12.8109 21.9171 12.6135 21.9171 12.3699C21.9171 12.1264 22.114 11.9289 22.3574 11.9289C23.4427 11.9289 24.3255 12.8125 24.3255 13.8985V14.2731L26.1914 16.3155C26.8364 12.8838 24.3937 10.0061 21.2286 9.02669C19.4896 8.48852 17.9219 8.78222 16.8265 10.2936C16.8263 10.2937 16.3026 9.95439 15.8452 10.4266Z" fill="white"/>
<path id="Vector_6" d="M26.0053 17.432L23.9054 15.1172C22.9028 16.2381 21.4954 16.8804 19.9693 16.8975C18.4266 16.9147 16.9978 16.2935 15.9685 15.178L14.4516 17.4399C13.7985 17.2868 13.1523 17.7971 13.1523 18.4694C13.1523 19.142 13.7992 19.6527 14.4526 19.4987C14.7575 22.1728 17.4083 24.1568 20.0009 24.1568C22.8397 24.1568 24.8961 22.1362 25.5874 19.5072C26.2312 19.6354 26.8524 19.1271 26.8524 18.4694C26.8524 17.957 26.4885 17.5297 26.0053 17.432Z" fill="white"/>
</g>
</g>
<g id="Group_7">
<path id="Vector_7" d="M19.9977 5.48057C19.7616 5.48057 19.5703 5.28901 19.5703 5.05274V1.26766C19.5703 1.0314 19.7616 0.839844 19.9977 0.839844C20.2338 0.839844 20.4251 1.0314 20.4251 1.26766V5.05274C20.4251 5.28901 20.2338 5.48057 19.9977 5.48057Z" fill="white"/>
<path id="Vector_8" d="M12.8696 7.39167C12.7218 7.39167 12.5782 7.31491 12.499 7.17771L10.6081 3.89969C10.4901 3.69514 10.5601 3.43341 10.7646 3.31528C10.969 3.19697 11.2304 3.26724 11.3484 3.47187L13.2393 6.74989C13.4008 7.02984 13.193 7.39167 12.8696 7.39167Z" fill="white"/>
<path id="Vector_9" d="M7.6513 12.6195C7.57881 12.6195 7.50539 12.6009 7.43803 12.5621L4.163 10.6696C3.95853 10.5514 3.88853 10.2898 4.00657 10.0851C4.12445 9.88058 4.38567 9.81024 4.59039 9.92854L7.86542 11.821C8.22913 12.0312 8.07143 12.6195 7.6513 12.6195Z" fill="white"/>
<path id="Vector_10" d="M32.3432 12.6116C31.9239 12.6116 31.7642 12.024 32.129 11.8132L35.404 9.92069C35.6084 9.80247 35.8698 9.87273 35.9878 10.0773C36.1058 10.2819 36.0358 10.5436 35.8314 10.6617L32.5564 12.5542C32.4892 12.593 32.4156 12.6116 32.3432 12.6116Z" fill="white"/>
<path id="Vector_11" d="M27.1249 7.39147C26.8015 7.39147 26.5937 7.02964 26.7552 6.74969L28.6461 3.47176C28.7641 3.26712 29.0257 3.19712 29.2299 3.31516C29.4344 3.43329 29.5044 3.69494 29.3863 3.89958L27.4955 7.17752C27.4163 7.31471 27.2725 7.39147 27.1249 7.39147Z" fill="white"/>
</g>
</g>
</svg>
