<svg width="31" height="31" viewBox="0 0 31 31" fill="none" xmlns="http://www.w3.org/2000/svg">
<path id="Vector" d="M18.4562 19.5301C18.8811 19.5301 19.2498 19.3739 19.5622 19.0614C19.8746 18.749 20.0308 18.3804 20.0308 17.9555C20.0308 17.5306 19.8746 17.1619 19.5622 16.8495C19.2498 16.5371 18.8811 16.3809 18.4562 16.3809C18.0314 16.3809 17.6627 16.5371 17.3503 16.8495C17.0379 17.1619 16.8817 17.5306 16.8817 17.9555C16.8817 18.3804 17.0379 18.749 17.3503 19.0614C17.6627 19.3739 18.0314 19.5301 18.4562 19.5301ZM17.3315 14.7313H19.581C19.581 14.0065 19.6559 13.4754 19.8059 13.138C19.9559 12.8006 20.3058 12.3569 20.8556 11.8071C21.6054 11.0573 22.1053 10.4512 22.3552 9.98881C22.6052 9.52643 22.7301 8.98283 22.7301 8.35799C22.7301 7.23328 22.3365 6.31477 21.5492 5.60246C20.7619 4.89014 19.7309 4.53398 18.4562 4.53398C17.4315 4.53398 16.538 4.82141 15.7757 5.39626C15.0134 5.97111 14.4823 6.73341 14.1824 7.68316L16.2068 8.50795C16.4318 7.88311 16.7379 7.41448 17.1253 7.10207C17.5127 6.78965 17.9564 6.63344 18.4562 6.63344C19.0561 6.63344 19.5435 6.80214 19.9184 7.13956C20.2933 7.47697 20.4807 7.9331 20.4807 8.50795C20.4807 8.85786 20.3807 9.18902 20.1808 9.50144C19.9809 9.81386 19.6309 10.2075 19.1311 10.6824C18.3063 11.4072 17.8002 11.9758 17.6127 12.3882C17.4253 12.8006 17.3315 13.5816 17.3315 14.7313ZM9.45859 24.0289C8.63381 24.0289 7.92774 23.7352 7.3404 23.1479C6.75305 22.5605 6.45937 21.8545 6.45937 21.0297V3.03437C6.45937 2.20959 6.75305 1.50352 7.3404 0.916177C7.92774 0.32883 8.63381 0.0351562 9.45859 0.0351562H27.4539C28.2787 0.0351562 28.9848 0.32883 29.5721 0.916177C30.1595 1.50352 30.4531 2.20959 30.4531 3.03437V21.0297C30.4531 21.8545 30.1595 22.5605 29.5721 23.1479C28.9848 23.7352 28.2787 24.0289 27.4539 24.0289H9.45859ZM3.46016 30.0273C2.63537 30.0273 1.9293 29.7337 1.34196 29.1463C0.754611 28.559 0.460938 27.8529 0.460938 27.0281V6.03359H3.46016V27.0281H24.4547V30.0273H3.46016Z" fill="white"/>
</svg>
