<svg width="31" height="32" viewBox="0 0 31 32" fill="none" xmlns="http://www.w3.org/2000/svg">
<g id="Group 81386">
<path id="Vector" d="M1.84858 25.6406L0.167969 28.3267L1.84858 31.0128H12.4547L14.1353 28.3267L12.4547 25.6406H1.84858Z" fill="white"/>
<path id="Vector_2" d="M17.9033 25.6406L16.2227 28.3267L17.9033 31.0128H28.5093L30.1899 28.3267L28.5093 25.6406H17.9033Z" fill="white"/>
<path id="Vector_3" d="M1.84858 17.957L0.167969 20.6431L1.84858 23.3291H12.4547L14.1353 20.6431L12.4547 17.957H1.84858Z" fill="white"/>
<path id="Vector_4" d="M17.9033 17.957L16.2227 20.6431L17.9033 23.3291H28.5093L30.1899 20.6431L28.5093 17.957H17.9033Z" fill="white"/>
<path id="Vector_5" d="M0.167969 0.988281V15.6448H30.1914V0.988281H0.167969ZM15.1797 12.8975C14.6866 12.8975 14.3214 12.4945 14.3001 12.0179C14.2788 11.5429 14.7196 11.1383 15.1797 11.1383C15.6728 11.1383 16.0379 11.5413 16.0593 12.0179C16.0806 12.4929 15.6398 12.8975 15.1797 12.8975ZM16.0593 8.66249V9.72592H14.3001V7.06639H15.1797C15.5617 7.06639 15.8723 6.75565 15.8723 6.37373C15.8723 5.99182 15.5617 5.68103 15.1797 5.68103C14.7977 5.68103 14.487 5.99176 14.487 6.37368H12.7278C12.7278 5.02168 13.8277 3.92184 15.1797 3.92184C16.5317 3.92184 17.6315 5.02174 17.6315 6.37368C17.6315 7.41582 16.978 8.30819 16.0593 8.66249Z" fill="white"/>
</g>
</svg>
