<svg width="45" height="44" viewBox="0 0 45 44" fill="none" xmlns="http://www.w3.org/2000/svg">
<g id="Group 81358">
<g id="Ellipse 941" opacity="0.1">
<mask id="path-1-inside-1_2305_41005" fill="white">
<path d="M30.2505 35.5412C22.6346 39.9382 12.8962 37.3288 8.49911 29.7129C4.10206 22.097 6.71146 12.3586 14.3274 7.96156C21.9433 3.56451 31.6817 6.17391 36.0787 13.7898C40.4758 21.4057 37.8664 31.1441 30.2505 35.5412ZM17.4663 13.3984C12.8531 16.0619 11.2725 21.9607 13.936 26.574C16.5994 31.1872 22.4983 32.7678 27.1115 30.1043C31.7247 27.4409 33.3053 21.542 30.6419 16.9288C27.9784 12.3156 22.0796 10.735 17.4663 13.3984Z"/>
</mask>
<path d="M30.2505 35.5412C22.6346 39.9382 12.8962 37.3288 8.49911 29.7129C4.10206 22.097 6.71146 12.3586 14.3274 7.96156C21.9433 3.56451 31.6817 6.17391 36.0787 13.7898C40.4758 21.4057 37.8664 31.1441 30.2505 35.5412ZM17.4663 13.3984C12.8531 16.0619 11.2725 21.9607 13.936 26.574C16.5994 31.1872 22.4983 32.7678 27.1115 30.1043C31.7247 27.4409 33.3053 21.542 30.6419 16.9288C27.9784 12.3156 22.0796 10.735 17.4663 13.3984Z" stroke="#EF4444" stroke-width="16" mask="url(#path-1-inside-1_2305_41005)"/>
</g>
<g id="Ellipse 940">
<mask id="path-2-inside-2_2305_41005" fill="white">
<path d="M22.845 37.6648C18.6245 37.8123 14.5183 36.2771 11.4297 33.3971C8.34105 30.517 6.52302 26.528 6.37553 22.3075C6.22804 18.087 7.76318 13.9808 10.6432 10.8921C13.5233 7.8035 17.5123 5.98547 21.7328 5.83798L21.97 12.6262C19.5499 12.7108 17.2625 13.7533 15.611 15.5244C13.9595 17.2955 13.0792 19.6501 13.1637 22.0703C13.2483 24.4904 14.2908 26.7778 16.0619 28.4293C17.833 30.0808 20.1877 30.9611 22.6078 30.8766L22.845 37.6648Z"/>
</mask>
<path d="M22.845 37.6648C18.6245 37.8123 14.5183 36.2771 11.4297 33.3971C8.34105 30.517 6.52302 26.528 6.37553 22.3075C6.22804 18.087 7.76318 13.9808 10.6432 10.8921C13.5233 7.8035 17.5123 5.98547 21.7328 5.83798L21.97 12.6262C19.5499 12.7108 17.2625 13.7533 15.611 15.5244C13.9595 17.2955 13.0792 19.6501 13.1637 22.0703C13.2483 24.4904 14.2908 26.7778 16.0619 28.4293C17.833 30.0808 20.1877 30.9611 22.6078 30.8766L22.845 37.6648Z" stroke="#EF4444" stroke-width="16" mask="url(#path-2-inside-2_2305_41005)"/>
</g>
</g>
</svg>
