<svg width="87" height="19" viewBox="0 0 87 19" fill="none" xmlns="http://www.w3.org/2000/svg">
<g id="Group 81458">
<path id="Vector" d="M15.4758 0.710938H1.54758C0.692542 0.710938 0 1.40348 0 2.25852V16.1867C0 17.0418 0.692542 17.7343 1.54758 17.7343H9.28548V10.7702H6.96411V8.44884H9.28548V7.20226C9.28548 4.8422 10.4353 3.8061 12.3969 3.8061C13.3363 3.8061 13.833 3.87574 14.0683 3.90746V6.12747H12.7304C11.8978 6.12747 11.6069 6.56698 11.6069 7.45684V8.44884H14.0474L13.7162 10.7702H11.6069V17.7343H15.4758C16.3308 17.7343 17.0234 17.0418 17.0234 16.1867V2.25852C17.0234 1.40348 16.3301 0.710938 15.4758 0.710938Z" fill="#12AFFF"/>
<path id="Vector_2" d="M39.3774 0C36.4121 0 34 2.41433 34 5.38042V13.0646C34 16.0299 36.4143 18.442 39.3804 18.442H47.0646C50.0299 18.442 52.442 16.0277 52.442 13.0616V5.37742C52.442 2.4121 50.0277 0 47.0616 0H39.3774ZM48.5999 3.07367C49.0241 3.07367 49.3683 3.41792 49.3683 3.84208C49.3683 4.26625 49.0241 4.6105 48.5999 4.6105C48.1757 4.6105 47.8315 4.26625 47.8315 3.84208C47.8315 3.41792 48.1757 3.07367 48.5999 3.07367ZM43.221 4.6105C45.7637 4.6105 47.8315 6.67831 47.8315 9.221C47.8315 11.7637 45.7637 13.8315 43.221 13.8315C40.6783 13.8315 38.6105 11.7637 38.6105 9.221C38.6105 6.67831 40.6783 4.6105 43.221 4.6105ZM43.221 6.14733C42.4058 6.14733 41.624 6.47116 41.0476 7.04759C40.4712 7.62401 40.1473 8.40581 40.1473 9.221C40.1473 10.0362 40.4712 10.818 41.0476 11.3944C41.624 11.9708 42.4058 12.2947 43.221 12.2947C44.0362 12.2947 44.818 11.9708 45.3944 11.3944C45.9708 10.818 46.2947 10.0362 46.2947 9.221C46.2947 8.40581 45.9708 7.62401 45.3944 7.04759C44.818 6.47116 44.0362 6.14733 43.221 6.14733Z" fill="#12AFFF"/>
<path id="Vector_3" d="M84.4758 0.710938H70.5476C69.6925 0.710938 69 1.40348 69 2.25852V16.1867C69 17.0418 69.6925 17.7343 70.5476 17.7343H84.4758C85.3308 17.7343 86.0234 17.0418 86.0234 16.1867V2.25852C86.0234 1.40348 85.3308 0.710938 84.4758 0.710938ZM74.3809 14.6392H72.0983V7.29435H74.3809V14.6392ZM73.2164 6.24431C72.4805 6.24431 71.8855 5.64772 71.8855 4.91339C71.8855 4.17907 72.4813 3.58325 73.2164 3.58325C73.9499 3.58325 74.5465 4.17984 74.5465 4.91339C74.5465 5.64772 73.9499 6.24431 73.2164 6.24431ZM82.9313 14.6392H80.6502V11.0673C80.6502 10.2154 80.6347 9.11972 79.464 9.11972C78.2762 9.11972 78.0936 10.0475 78.0936 11.0054V14.6392H75.8124V7.29435H78.0023V8.29795H78.0332C78.3381 7.7207 79.0825 7.11173 80.1929 7.11173C82.5042 7.11173 82.9313 8.633 82.9313 10.6108V14.6392Z" fill="#12AFFF"/>
</g>
</svg>
