<svg width="38" height="26" viewBox="0 0 38 26" fill="none" xmlns="http://www.w3.org/2000/svg">
<path id="Vector" d="M8.41484 23.3505C5.61181 23.2141 3.52356 22.6414 2.15007 21.6323C0.776586 20.6232 0.0898438 19.1641 0.0898438 17.255C0.0898438 15.4823 0.839654 14.0437 2.33928 12.9391C3.8389 11.8346 5.92015 11.1732 8.58303 10.955C9.67621 10.8732 10.4961 10.7028 11.0427 10.4437C11.5893 10.1846 11.8626 9.82323 11.8626 9.35959C11.8626 8.6505 11.4491 8.11868 10.6222 7.76413C9.79534 7.40959 8.42886 7.1505 6.5228 6.98686L6.81712 3.71413C9.70424 3.93232 11.8275 4.49822 13.187 5.41186C14.5465 6.3255 15.2262 7.64141 15.2262 9.35959C15.2262 10.805 14.6866 11.9369 13.6075 12.755C12.5283 13.5732 10.9376 14.0641 8.8353 14.2278C7.04136 14.3641 5.6959 14.6846 4.79893 15.1891C3.90196 15.6937 3.45348 16.3823 3.45348 17.255C3.45348 18.2096 3.8459 18.8982 4.63075 19.321C5.4156 19.7437 6.73303 19.996 8.58303 20.0778L8.41484 23.3505ZM21.7433 22.1232L14.8058 15.3732L29.3114 1.25959C29.872 0.714134 30.5378 0.441406 31.3086 0.441406C32.0794 0.441406 32.7451 0.714134 33.3058 1.25959L36.2489 4.12322C36.8095 4.66868 37.0898 5.31641 37.0898 6.06641C37.0898 6.81641 36.8095 7.46413 36.2489 8.00959L21.7433 22.1232ZM13.5023 24.9869C13.0258 25.096 12.6054 24.9732 12.241 24.6187C11.8766 24.2641 11.7505 23.855 11.8626 23.3914L13.166 17.2141L19.8092 23.6778L13.5023 24.9869Z" fill="white"/>
</svg>
