<svg width="36" height="30" viewBox="0 0 36 30" fill="none" xmlns="http://www.w3.org/2000/svg">
<path id="Vector" d="M24.149 29.0963L18.2311 23.1784L20.6326 20.7769L24.149 24.2934L32.8114 15.6309L35.2129 18.0324L24.149 29.0963ZM14.6289 14.6875C12.742 14.6875 11.1268 14.0157 9.78309 12.672C8.43942 11.3283 7.76758 9.71304 7.76758 7.82617C7.76758 5.93931 8.43942 4.32404 9.78309 2.98036C11.1268 1.63668 12.742 0.964844 14.6289 0.964844C16.5158 0.964844 18.131 1.63668 19.4747 2.98036C20.8184 4.32404 21.4902 5.93931 21.4902 7.82617C21.4902 9.71304 20.8184 11.3283 19.4747 12.672C18.131 14.0157 16.5158 14.6875 14.6289 14.6875ZM19.5176 16.9174L13.2566 23.1784L18.4884 28.4102H0.90625V23.6072C0.90625 22.6638 1.14926 21.7775 1.63527 20.9485C2.12128 20.1194 2.79312 19.4904 3.65078 19.0616C5.10881 18.3183 6.75267 17.6893 8.58236 17.1747C10.412 16.6601 12.4276 16.4028 14.6289 16.4028C15.4866 16.4028 16.3228 16.4457 17.1376 16.5315C17.9524 16.6172 18.7457 16.7459 19.5176 16.9174Z" fill="white"/>
</svg>
