<svg width="38" height="40" viewBox="0 0 38 40" fill="none" xmlns="http://www.w3.org/2000/svg">
<g id="Group 1000003641">
<g id="Group">
<g id="Group_2">
<path id="Vector" d="M4.75434 24.9922H1.21708C0.701943 24.9922 0.28125 25.4129 0.28125 25.928V38.9953C0.28125 39.5104 0.701943 39.9311 1.21708 39.9311H4.75434C5.26947 39.9311 5.69017 39.5104 5.69017 38.9953V25.928C5.69017 25.4129 5.26947 24.9922 4.75434 24.9922Z" fill="white"/>
</g>
</g>
<g id="Group_3">
<g id="Group_4">
<path id="Vector_2" d="M37.558 26.0597C37.5323 26.0253 37.5065 25.991 37.4893 25.9567C36.9656 25.3728 36.0813 25.2956 35.4632 25.7764C33.746 27.1758 31.239 29.1934 29.6164 30.507C28.1826 31.6489 26.4139 32.31 24.5766 32.3787L20.1808 32.5246C19.3738 32.5504 18.6182 32.1383 18.2061 31.4428L17.7168 30.61C17.588 30.3954 17.5021 30.155 17.4506 29.906C17.2274 28.7126 18.0087 27.5536 19.2021 27.3304L23.7438 26.4718C24.4736 26.3258 24.9716 25.639 24.8857 24.9006C24.7999 24.1966 24.1989 23.6729 23.4949 23.6643C23.4691 23.6643 23.4348 23.6643 23.4262 23.6643C23.3918 23.6643 23.3489 23.6643 23.3146 23.6643L17.2016 23.4153C15.081 23.3381 13.2523 23.7502 11.0887 24.7976L7.41406 26.5748V36.3624L10.4963 35.7957C10.5049 35.7871 10.5135 35.7872 10.522 35.7872C11.7154 35.6154 12.5053 35.5382 13.8017 35.5983L23.0312 36.0275C25.9246 36.1477 28.7664 35.1947 30.9901 33.3403L37.3777 28.043C37.9701 27.545 38.0474 26.6521 37.558 26.0597Z" fill="white"/>
</g>
</g>
<path id="Vector_3" d="M25.8995 0.78125C20.6452 0.789836 16.3953 5.04828 16.3867 10.2941C16.3867 10.3027 16.3867 10.3027 16.3867 10.3027C16.3867 15.557 20.6538 19.8155 25.9081 19.8155C31.1625 19.8155 35.4209 15.5484 35.4209 10.2941C35.4209 5.0397 31.1539 0.78125 25.8995 0.78125ZM28.106 7.64971H29.2565C29.7287 7.64971 30.1151 8.03606 30.1151 8.50827C30.1151 8.98048 29.7287 9.36683 29.2565 9.36683H28.106C27.9343 10.0365 27.5909 10.6461 27.1015 11.1355C26.4576 11.7794 25.599 12.1571 24.689 12.2087L27.9257 15.2737C28.2692 15.6 28.2863 16.1409 27.9601 16.4843C27.6338 16.8277 27.0929 16.8449 26.7495 16.5186L21.9502 11.9768C21.787 11.8137 21.684 11.5905 21.684 11.3587C21.6754 10.8779 22.0618 10.4915 22.5426 10.483H24.4657C24.9981 10.4915 25.5132 10.2855 25.8995 9.90772C26.0541 9.7446 26.1829 9.5643 26.2945 9.36683H22.5426C22.0704 9.36683 21.684 8.98048 21.684 8.50827C21.684 8.03606 22.0704 7.64971 22.5426 7.64971H26.2945C25.9768 6.96287 25.2728 6.44773 24.4657 6.44773H22.5426C22.0704 6.44773 21.684 6.06138 21.684 5.58917C21.684 5.11697 22.0704 4.73062 22.5426 4.73062H29.2565C29.7287 4.73062 30.1151 5.11697 30.1151 5.58917C30.1151 6.06138 29.7287 6.44773 29.2565 6.44773H27.6081C27.8485 6.81691 28.0116 7.22043 28.106 7.64971Z" fill="white"/>
</g>
</svg>
